<?xml version="1.0" encoding="UTF-8"?>
<svg id="Layer_1" data-name="Layer 1" xmlns="http://www.w3.org/2000/svg" viewBox="0 0 281 281">
  <path d="M4.7,202.58c-3.39-1.1-.81-15.65,0-18.67,4.91-18.06,20.42-29.72,39.01-30.69-5.86-27.03,22.33-45.81,45.62-31.39.75-.17,4.73-9.5,5.62-11.07,26.15-45.86,94.37-42.19,115.4,6.21,1.38,3.17,3.88,9.4,4.06,12.67.22,4.1-6.91,19.29-9.42,23.13-5.13,7.83-14.44,13.53-23.63,15.05l-100.64,1.42c-2.37-.39-4.6,2.17-3.06,4.27.84,1.15,24.75.3,28.44.37,17.44.34,35.2.91,52.63,1.39,6.47.18,13.75-.6,20.06-.05,15.35,1.33,17.15,15.87,10.65,27.37H4.7Z"/>
  <path d="M197.12,202.58c1.38-9.79,9.35-19.64,18.08-24.27,11.27-5.98,22.46-2.79,34.24-4.47,2.81-.4,3.8-2.27,1.93-4.64-7.9-.75-16.61-.34-24.4-1.48-17.9-2.62-11.04-23.69-7.44-35.22,33.46-2.17,61.02,25.47,58.27,59.06-.15,1.8-1.62,11.02-3.66,11.02h-77.03Z"/>
</svg>