<?xml version="1.0" encoding="UTF-8"?>
<svg id="Layer_1" data-name="Layer 1" xmlns="http://www.w3.org/2000/svg" viewBox="0 0 281 281">
  <path d="M140.71,270.88c-13.84-1.17-33.48-12.94-44.56-21.28-42.27-31.82-69.73-89.81-58.09-142.89,3.76-17.14,13.73-33.81,22.47-48.9,5.96-10.29,13.85-18.11,22.34-26.27l.62,1.87c2.01.21,3.66-.65,5.44-1.35,11.8-4.69,23.89-14.91,35.46-20.59,4.63.73,8.94-1.1,13.54-1.47l-3.07,3.07h9.84v.61s-3.69.63-3.69.63v1.22s15.07,0,15.07,0c1.62,0,5-1.71,6.66-2.32,11.86,3.89,23.66,10.87,35.64,14.17,2.01.55,7.82,2.64,6.62-.77.29.02.64-.1.91,0,2.05.76,11.1,8.22,13.25,10.14,7.6,6.77,16.85,17.77,20.82,27.17,2.41,5.69.95,8.78,2.08,14.53.8,4.07,3.24,8.45,3.54,12.76l-4.6-9.85c-1.49-2.18-5.55-10.15-8.11-10.37l-1.37.94c.43,5.71,3.35,11.24,5.48,16.52l-1.85.31c-1.29,1.77,6.26,15.52,6.11,18.71-.18,3.75-4.29,8.84-3.05,13.28l-1.83-1.84-.67,4.66,1.3,1.23-.64,3.95-1.22-3.68c-2.73,6.94-6.89,13.81-6.78,21.53l-2.87-2.38c-3.17-.88-2.86,7.71-3.29,9.76l-.91-1.23c-19.76,21.79-50.65,39.51-78.65,20.19-20.37-14.05-32.87-50.52-18.16-72.08,1.57-2.3,5.71-7.59,7.58-9.64,12.69-13.92,37.45-12,50.77,0-4.98-2.08-9.55-4.42-15.08-4.91-23.91-2.1-44.03,18.31-43.98,41.83l1.84-.61c-.62,23.17,23.04,44.85,45.87,43.71,4.75-.24,15.96-3.32,19.93-5.91,1.71-1.11,3.69-3.19,5.27-4.57.7-.3-.4,2.36,1.22,1.84,1.73-.56,9.4-8.34,11.39-10.15.96-.87,3.68-2.32,4.12-2.95,1.06-1.5.58-4.88,1.38-6.93.99-2.57,3.55-2.95,4.63-4.6,3.31-5,5.03-20.57,5.25-26.74.54-14.82-3.78-30.19-12.41-42.34-16.77-23.58-47.49-37.36-76.18-29.96l1.84-2.16c.26-1.29-.62-1-1.53-.92-6.21.57-33.38,12.89-36.86,17.91-1.08,1.55-1.9,4.96-2.19,5.19-.5.39-2.04.38-2.91.78-9.29,4.25-23.09,14.87-29.42,22.88-1.92,2.43-5.17,6.69-.31,7.69-9.15,20.17-16.27,41.56-10.9,63.82,1.21,5.02,1.42,4.52,1.73,9.95.15,2.65,2.2,5.74,2.29,6.94.05.71-1.05,1.67-1.18,2.96-.67,6.75,10.45,17,15.44,20.93l-2.45.61c1.24,2.19,6.14,7.49,5.88,9.84-.06.51-.84,1.14-.96,1.89-.45,2.97,1.98,2.45,3.07,4.57-4.43-.83-1.62,2.45-.26,4.26,3.14,4.18,9.56,8.33,11.6,11.17,1.74,2.43,1.91,6.84,4.97,9.8,2.53,2.45,4.83,1.76,6.32,2.61.35.2,3.96,4.93,5.37,6.01,1.19.91,2.51,1.53,3.97,1.9-2.51,5.85,6.99,11.52,10.8,6.73,4.24,3.68,7.88,9.14,13,11.6,5.7,2.74,12.1,2.88,18.19,3.96.77.14,2.98.11,2.96,1.04-4.5-.28-9.39.38-13.84,0Z"/>
</svg>