<?xml version="1.0" encoding="UTF-8"?>
<svg id="Layer_1" data-name="Layer 1" xmlns="http://www.w3.org/2000/svg" viewBox="0 0 281 281">
  <path d="M197.82,137.85c4.61-.49,9.41-3.03,13.89-4.07.57-.62-2.77-7.25-3.2-8.66-4.29-14.26-.11-29.76,8.34-41.54,11.86,5.76,21.19,17.27,23.95,30.26,4.68.39,9.17-.72,13.97-.41,4.79.31,11.99,1.99,16.37,3.96,7.7,3.46,7.49,4.7,3.46,11.86-8.04,14.28-23.99,19.75-39.78,18.85-16.38,42.48-52.69,72.66-96.98,82.95-29.79,6.93-68.36,8.37-95.52-7.52C13.12,206.44.43,170.54,4.32,137.85h193.49Z"/>
  <rect x="124.96" y="45" width="28.46" height="25.75"/>
  <rect x="91.75" y="76.18" width="28.46" height="25.75"/>
  <rect x="124.96" y="76.18" width="28.46" height="25.75"/>
  <rect x="24.66" y="107.35" width="28.46" height="25.75"/>
  <rect x="91.75" y="107.35" width="28.46" height="25.75"/>
  <rect x="124.96" y="107.35" width="28.46" height="25.75"/>
  <rect x="158.85" y="107.35" width="28.46" height="25.75"/>
  <rect x="58.54" y="76.18" width="27.79" height="25.75"/>
  <rect x="58.54" y="107.35" width="27.79" height="25.75"/>
</svg>