<?xml version="1.0" encoding="UTF-8"?>
<svg id="Layer_1" data-name="Layer 1" xmlns="http://www.w3.org/2000/svg" viewBox="0 0 281 281">
  <path d="M207.01,96.09l.16.53c13.43,6.74,23.28,19.93,25.99,34.74,6.14,33.63-22.26,62.99-56.07,57.89-12.4-1.87-23.58-8.67-31.38-18.36v60.14c-1.66,31.76-32.01,53.93-62.92,45.24-29.4-8.27-44.18-41.48-30.82-69.11,4.75-9.83,12.76-17.48,22.3-22.64-25.43-12.49-34.86-44.21-20.56-68.87,4.64-8.01,12.1-15.31,20.56-19.05l-.18-.51c-12.04-5.75-21.37-17.14-25.08-29.93C40.07,35.36,61.93,4.85,93.63,2.84h93.51c29.88,1.75,51.43,28.81,46.01,58.49-2.71,14.82-12.62,28.16-26.15,34.76ZM135.32,13.23h-41.17c-48.6,4.34-48.61,73.58,0,77.92h41.17s0-77.92,0-77.92ZM145.71,13.23v77.92h41.17c48.6-4.32,48.59-73.61,0-77.92h-41.17ZM135.32,101.54h-41.17c-48.6,4.29-48.62,73.63,0,77.92h41.17s0-77.92,0-77.92ZM154.28,101.54h-8.57v8.57l8.57-8.57ZM182.02,101.62c-28.64,1.93-45.49,33.44-31.06,58.44,15.04,26.07,53.31,25.7,67.79-.68,14.83-27.02-6.02-59.83-36.72-57.76ZM135.32,189.85h-41.18c-30.22,1.86-47.39,36.24-29.68,61.38,21.28,30.2,68.84,16.35,70.87-20.46v-40.92Z"/>
</svg>