<?xml version="1.0" encoding="UTF-8"?>
<svg id="Layer_1" data-name="Layer 1" xmlns="http://www.w3.org/2000/svg" viewBox="0 0 281 281">
  <path d="M150.81,110.3c-.03-.72-4.07-2.74.77-2.36,4.27,6.55,23,19.74,25.45,25.33,1.41,3.22-1.86,8.73,1.07,16.2,10,25.48,50.45,8.4,36.44-17.37-8-14.73-16.84-6.79-25.66-10.77-1.74-.78-25.76-24.69-27.13-26.81-1.74-2.68.4-7.91-.92-13.16-2.31-9.18-9.97-14.43-19.14-15.72-2.81-.39-5.21,1.8-8.26.49-6.44-2.77-22.53-25.2-30.15-30.09,13.34-10.22,27.83-39.24,47.59-25.34l122.87,124c2.69,8.34-.63,13.69-5.58,19.88-31.32,39.14-81.15,74.71-114.14,113.75-5.06,4.39-11.22,6.77-17.93,5.16L13.67,155.35c-8.41-10.64-10.52-16.93-1.6-28.5L91.37,47.92c4.75,7.39,27.61,23.9,30.17,30.03,1.81,4.34-4.28,11.69,3.89,21.32,2.05,2.41,6.28,4.08,7.15,5.51,4.29,7.05-1.61,60.9.83,73.14-14.47,7.68-18.14,27.36-3.14,36.6,19.29,11.89,40.23-11.14,27.62-29.1-2.69-3.83-7.07-4.38-7.07-4.81,0-23.05,1.06-47.42,0-70.31Z"/>
</svg>