<?xml version="1.0" encoding="UTF-8"?>
<svg id="Layer_1" data-name="Layer 1" xmlns="http://www.w3.org/2000/svg" viewBox="0 0 290.09 290.09">
  <path d="M87.87,19.78C-5.96,61.6-24.36,188.62,54.84,254.79c15.4,12.86,33.58,22.55,53,27.79l.43-31.89c-12.63,2.46-26.54,3.01-37.71-4.3-12.31-8.04-11.96-22.8-22.61-32.12-2.56-2.24-9.79-5.57-10.23-9.12-.28-2.24,4.89-2.8,6.57-2.76,18.93.56,21.96,22.92,36.72,28.37,9.32,3.44,18.8,1.31,27.67-2.29.98-.71,1.63-3.95,2.37-5.38,2.12-4.06,5.58-5.96,9.71-7.53-25.08-3.07-50.34-11.95-66.53-32.15-11.09-13.84-18.89-36.55-16-54.26,2.43-14.88,12.77-25.99,23.95-35.19-3.86-11.03-4.2-23.78-1.11-35.05.42-1.55,1.93-6.4,2.78-7.45,1.95-2.41,14.22.71,17.24,1.65,9.88,3.07,19.22,8.78,27.87,14.32,24.16-7.02,51.76-7.19,75.86.02,7.47-4.92,15.33-9.53,23.71-12.74,6.58-2.53,13.67-4.78,20.82-3.79.64.45,1.15,6.1,1.26,7.35.99,10.86.77,21.86.89,32.76,0,.72-.31,1.38-.35,2.09,32.35,31.03,28.47,87.57-11.44,110.22-12.73,7.23-27.19,10.39-41.65,12,7.59,5.74,12.14,14.37,12.92,23.92.21,2.51-.16,5.21.01,7.75.7,10.7,1.6,21.4,2.15,32.11,49.11-18.22,84.62-62.65,90.85-114.9C296.84,56.84,186.97-24.38,87.87,19.78Z"/>
</svg>