<?xml version="1.0" encoding="UTF-8"?>
<svg id="Layer_1" data-name="Layer 1" xmlns="http://www.w3.org/2000/svg" viewBox="0 0 281 281">
  <path d="M26.72,3.16l225.59-.16c4.09.08,7.49,3.11,8.52,6.97-4.99,77.26-11.78,154.48-17.72,231.69-1.48,5.89-6.74,6.51-11.69,8.22-29.9,10.32-60.68,18.8-90.87,28.11-30.87-10.07-63.75-18.14-94.19-29.22-8.41-3.06-8.1-5.11-8.98-13.7C29.9,162.11,27.75,88.45,20.23,15.46c-.19-5.85-.18-10.61,6.49-12.31ZM217.71,53.36H63.37l7.19,92.93h108.42l-3.3,37.36-34.58,9.4-35.14-9.97v-23.51h-34.3l3.56,48.71,63.35,20.19h3.37s63.32-20.76,63.32-20.76l6.91-92.39h-110.64l-3.32-32.08h116.72l2.77-29.87Z"/>
</svg>