<?xml version="1.0" encoding="UTF-8"?>
<svg id="Layer_1" data-name="Layer 1" xmlns="http://www.w3.org/2000/svg" viewBox="0 0 281 281">
  <path d="M234.81,3l8.85,1.47c19.61,4.5,36.45,23.29,37.56,43.6.06,1.12-.27,2.58.27,3.49v179.49c-.4,1.68-.35,3.44-.61,5.15-3.04,19.55-18.77,36.06-38.02,40.32l-9.93,1.47H48.34l-9.93-1.47C17.39,271.59,2.24,254.29.05,232.79c-.12-1.19.33-2.62-.54-3.62V49.41c.75-1.9.74-4.18,1.15-6.23C5.1,21.38,23.42,4.81,45.77,3.25l.43-.25h188.61ZM198.26,63.98c-17.62,1.66-17.47,26.87-1.84,29.31,23.08,3.61,23.61-31.36,1.84-29.31ZM136.05,167.49l9.4,27.76c.33.7.92,1.45,1.74,1.48h24.98c.71,0,1.26-.46,1.19-1.19-14.41-40.81-28.73-81.71-43.46-122.38l-32.16-.09c-.6,3.8-.46,7.75-1.84,11.44l-38.04,109.52c-.22,1.88-.73,2.55,1.33,2.7,7.33.53,15.36-.36,22.75-.08l.92-.55,9.65-28.59h43.53ZM187.24,103.4l-.87.47-.07,92.37c.27.56.75,1.01,1.4,1.01l23.84-.07c.68-.2,1.05-1.29,1-1.95l-.07-90.91c-.27-.56-.75-1.01-1.4-1.01l-23.83.07Z"/>
  <polygon points="99.05 143.59 113.67 94.75 128.83 143.59 99.05 143.59"/>
</svg>