<?xml version="1.0" encoding="UTF-8"?>
<svg id="Layer_1" data-name="Layer 1" xmlns="http://www.w3.org/2000/svg" viewBox="0 0 281 281">
  <path d="M276.49,41.41c-5.28-18.92-22.23-33.07-41.78-35.1-61.81-.61-123.68-.09-185.51-.26C23.96,7.4,3.97,27.42,2.62,52.62l-.02,175.29c.8,20.81,15.13,39.43,35.17,45.12,2.95.84,5.98,1.16,8.92,1.97h186.83c3.17-.65,6.37-1.04,9.5-1.91,15.83-4.42,28.91-17.45,33.4-33.25.86-3.03,1.21-6.14,1.97-9.18V50.39c-.75-2.97-1.08-6.01-1.91-8.98ZM101.34,196.22c-.88-.05-1.79-.08-2.7-.09-.46,0-.92,0-1.38,0-1.39.01-2.81.06-4.23.11-3.32.13-6.69.32-9.9.26-.92-.02-1.82-.05-2.71-.11-.44-.03-.88-.07-1.32-.11-.16-.02-.32-.04-.48-.06-.1-.02-.21-.04-.31-.07-.2-.05-.39-.13-.55-.23-.08-.05-.16-.11-.22-.18-.17-.17-.29-.39-.35-.7l-.07-118.3c-.03-.9.32-1.69,1.25-1.9l11.39-.03,11.39-.03h0c.2,0,.37.03.53.07.05.01.1.03.15.04.14.05.26.12.37.2.04.03.07.06.1.09.16.16.28.36.36.61.05.15.09.32.13.5l.08,118.03c.02,1.17-.39,1.69-1.52,1.89ZM206.25,190.33c-.82,1.38-13.71,4.85-15.97,5.35-22.24,4.86-49.17,3.48-62.71-17.42-8.31-12.83-9.06-33.11-2.98-46.96,9.57-21.79,32.78-31.22,55.67-28.69v-36.87c.02-.09.41-.46.53-.52h24.66s.52.79.52.79v114.67c.05,1.97,1.09,8.29.28,9.64Z"/>
  <path d="M180.23,124.41v50.58c-.72.22-1.45.48-2.21.56-21.03,2.04-32.73-7.9-31.09-29.51,1.24-16.32,18.29-25.28,33.29-21.62Z"/>
</svg>