<?xml version="1.0" encoding="UTF-8"?>
<svg id="Layer_1" data-name="Layer 1" xmlns="http://www.w3.org/2000/svg" viewBox="0 0 281 281">
  <path d="M232.1,3.99H48.9C23.55,3.99,3,24.54,3,49.89v182.22c0,25.35,20.55,45.9,45.9,45.9h183.19c25.35,0,45.9-20.55,45.9-45.9V49.89c0-25.35-20.55-45.9-45.9-45.9ZM148.83,184.23c-.05,2.54-.14,5.06-.28,7.57-.1,1.87-.27,3.72-.53,5.52-.11.79-.24,1.57-.39,2.34-.07.36-.14.72-.22,1.08-.16.71-.33,1.41-.52,2.1-.1.34-.2.69-.3,1.03-2.22,7.12-6.63,12.85-15.11,15.44-3.68,1.13-7.33,1.64-10.87,1.6-1.52-.02-3.02-.14-4.49-.36-1.96-.29-3.88-.76-5.73-1.39-2.78-.95-5.42-2.27-7.87-3.93-.82-.55-1.61-1.14-2.38-1.77-1.54-1.26-2.99-2.66-4.32-4.19-.33-.38-.66-.78-.98-1.18-1.6-2.01-3.02-4.22-4.24-6.63l15.27-9.31c.62,1.2,1.43,2.37,2.4,3.46.16.18.33.36.5.54.25.26.51.52.78.76.31.29.63.57.96.84.23.19.47.38.72.56,1.31.97,2.75,1.78,4.24,2.33.23.08.46.16.69.24.46.15.92.27,1.39.36.47.1.93.16,1.4.2.47.04.94.05,1.4.03.23,0,.47-.03.7-.05,1.39-.15,2.76-.59,4.06-1.38.31-.19.69-.55,1.08-1.02.1-.12.2-.24.3-.36.2-.25.4-.52.59-.8.29-.42.56-.86.8-1.28.32-.57.57-1.11.7-1.54.07-.22.1-.41.1-.56v-64.99l.81-.81h18.26l.83,1.85c-.22,5.04-.26,10.14-.22,15.26.02,2.56.06,5.13.11,7.69.21,10.27.56,20.59.35,30.73ZM157.76,201.92c-.12-.64.36-.88.72-1.26,2.9-3.08,10.19-5.81,13.44-9.08,5.39,8.18,11.97,15.18,22.72,11.93,6.69-2.02,8.85-9.53,4.15-14.7-3.47-3.82-16.47-7.97-21.79-10.97-24.59-13.89-18.67-47.34,10.11-48.99,11.49-.66,23.36,4.21,28.01,15.07l-13.76,8.86c-2.94-2.11-3.45-4.9-7.33-6.47-11.75-4.75-19.02,7.47-9.47,14.3,12.62,9.02,32.11,8.58,35.81,28.64,6.87,37.21-49.86,41.9-62.63,12.66Z"/>
</svg>