<?xml version="1.0" encoding="UTF-8"?>
<svg id="Layer_1" data-name="Layer 1" xmlns="http://www.w3.org/2000/svg" viewBox="0 0 281 281">
  <path d="M141.58,3c.9.28,1.82.33,2.74.59s1.9.62,2.78,1.09l108,62.31c2.7,1.67,4.84,4.53,5.76,7.57.33,1.08.4,2.19.71,3.27v125.36c-.3,1.08-.38,2.19-.71,3.27-.92,3.04-3.06,5.9-5.76,7.57l-108,62.31c-3.55,1.75-6.72,2.15-10.56,1.03-37.25-20.59-73.87-42.43-110.84-63.55-2.44-1.62-4.4-4.08-5.4-6.86-.43-1.19-.58-2.34-.86-3.55v-125.58c.6-4.24,2.56-8.31,6.25-10.63C62.49,46.11,99.06,24.57,136.03,3.8c.98-.34,2.38-.71,3.39-.8h2.15ZM106.31,119.55l63.22,75.16c9.51,9.03,30.29,9.88,32.68-6.03v-95.7c-.9-14.03-19.37-18.06-25.91-5.91-.5.93-1.61,3.67-1.61,4.63v70.21l-61.94-74.07c-8.78-10.28-31.33-11.99-33.97,4.51.18,32.65-.37,65.37.28,97.99,2.43,11.31,16.79,14.95,24.23,5.86,1.21-1.48,3.02-4.99,3.02-6.87v-69.78Z"/>
</svg>