<?xml version="1.0" encoding="UTF-8"?>
<svg id="Layer_1" data-name="Layer 1" xmlns="http://www.w3.org/2000/svg" viewBox="0 0 281 281">
  <path d="M107.79,211.39c-1.92,17.05-16.04,25.41-32.3,24.31-11.86-.8-33.9-14.2-44.18-21.04-6.59-4.39-10.01-8.16-10.73-16.56l.1-117.08c.9-5.6,3.52-10.44,7.96-14L129.96,8.63c6.4-3.32,14.04-3.6,20.45-.24,31.3,20.08,67.05,36.14,98,56.39,5.26,3.44,8.97,6.85,10.82,13.14,1.59,41.09,1.59,82.77,0,123.86l-4.68,8.63c-35.26,22.63-72.57,42.39-108.84,63.52-2.33.79-4.5,1.17-6.98,1.05-11.73-.56-32.59-18.97-44.21-23.69-.92-.36-1.86-2.23-1.36-2.95.21-.31,5.82-1.96,7.1-2.56,2.2-1.03,9.72-5.53,11.15-5.44l25.7,14.94,3.99.07c30.36-18.72,62.59-34.76,92.92-53.49,1.94-1.2,5.76-2.85,6.19-5.12l-.33-115.44c-.57-1.28-4.45-3.24-5.86-4.12-30.19-18.64-62.25-34.62-92.47-53.27l-2.82-.58c-33.64,18.38-66.73,38.24-100.19,57.1l-1.33,4.48c1.94,35.66-2.45,73.83,0,109.2.13,1.83.07,3.79,1.4,5.26,8.82,4.47,17.59,11.32,26.37,15.56,10.14,4.89,22.48,4.49,24.2-8.84v-113.81c.14-.9.84-1.94,1.6-2.39,1.92-1.14,17.01-1.23,17.01,1.04v120.45Z"/>
  <path d="M134.74,156.49c1.61.46,2.68,7.93,3.74,10.23,1.95,4.23,5.08,6.91,9.37,8.6,10.32,4.07,36.9,4.78,46.28-1.36,5.88-3.85,8.65-14.24,2.39-18.69-17.47-12.4-66.82.52-74.33-29.49-11.82-47.23,73.66-51.43,89.53-20.32,1.04,2.03,6.28,17.76,2.87,17.76h-15.97c-.82,0-4.44-10.92-8-13.96-8.01-6.83-32.19-6.8-41.57-3-9.73,3.93-12.59,15.61-1.31,19.93,20.53,7.86,66.17,1.86,71.1,30.06,4.39,25.1-15.94,37.31-38.19,38.84-20.93,1.44-54.94-.99-61.75-25.41-.61-2.2-2.59-13.18.53-13.18,3.3,0,12.97-.66,15.31,0Z"/>
</svg>