<?xml version="1.0" encoding="UTF-8"?>
<svg id="Layer_1" data-name="Layer 1" xmlns="http://www.w3.org/2000/svg" viewBox="0 0 281 281">
  <path d="M231.98,3.48l6.13.89c18.6,3.54,33.92,18.29,38.44,36.87l1.45,8.84v181.32l-1.4,8.63c-4.64,19.26-20.69,34.35-40.07,37.36-1.5.23-3.12.22-4.55.61H46.02l-8.52-1.42c-17.57-4.33-31.71-18.58-36.05-36.35L0,231.4V50.08C1.64,25.7,21.35,5.05,45.6,3.72l.42-.25h185.95ZM87.55,158.28c17.75.41,37.68.55,51.19-12.85,15.89-15.75,15.11-46.6-2.13-61.06s-41.52-10.89-62.14-10.44c-3.22.07-6.95-.31-10.07-.02-.59.05-1.15.06-1.58.55l-.12,121.99.52.81h23.8c.13-.06.53-.49.53-.54v-38.43ZM162.67,171.14v22.36c0,.71,1.87,1.51,2.47,1.79,11.16,5.28,31.46,5.92,43.17,2.37,14.18-4.3,23.41-16.3,21.26-31.71-1.71-12.26-11.23-18.29-21.48-22.98-4.95-2.27-18.48-6.28-20.74-11.14-1.46-3.14.17-6.34,3.31-7.49,7.14-2.61,20.82-.04,27.9,2.67,2.05.78,6.2,3.99,6.55.08.41-4.54.38-13.4,0-17.97-.06-.67-.26-2.04-.68-2.53-.36-.43-3.59-1.51-4.36-1.74-9.65-2.93-26.25-3.37-35.91-.47-10.22,3.07-18.8,10.84-20.84,21.76-3.18,17.08,7.39,26.79,21.39,33.27,5.16,2.39,11.97,4.12,16.55,7.34,5.57,3.92,4.41,9.56-2.09,11.23-10.64,2.73-26.12-1.41-35.44-6.99l-1.06.16Z"/>
  <path d="M87.82,136.05v-39.24c.23-.38.53-.37.91-.42,5.4-.64,17.16-.25,22.36,1.22,10.09,2.86,14.45,10.17,13.77,20.64-1.19,18.33-23.4,19-37.04,17.8Z"/>
</svg>