<?xml version="1.0" encoding="UTF-8"?>
<svg id="Layer_1" data-name="Layer 1" xmlns="http://www.w3.org/2000/svg" viewBox="0 0 281 281">
  <path d="M239.98,161.07c10.41.11,26.18-7.6,32.86,4.29,5.86,10.42-3.3,19.77-11.39,25.28-12.63,8.6-27.52,10.97-42.62,10.31-1.64,23.25-1.83,56.38-24.39,70.05-8.05,4.88-22.46,8.65-31.83,7.92-32.24-2.53-32.51-46.62-32.64-70.51-14.86,5.96-35.07,5.37-47.11-6.13-32.31,22.7-51-23.98-59.17-47.62C14.27,127.36,3.09,85.66,7.17,57.16,15.08,2.03,68.05-1.73,111.92,13.54c11.86-6.79,24.99-9.09,38.62-8.57,4.91.19,11.73,1.89,16.18,1.71,4.56-.19,12.56-3.03,17.9-3.71,29.93-3.85,58.99,3.49,79.24,26.51,3.78,4.29,6.42,8.51,7.89,14.12,6.69,25.62-7.65,67.83-18.4,91.61l-13.35,25.87ZM213,191.79c15.78,3.06,33.89.12,46.69-9.97,3.6-2.84,9.43-8.51,5.96-13.42s-14.9-.82-20.07-.28c-5.74.6-13.69,1.3-18.42-2.28,15.3-23.67,27.77-50.66,34.21-78.24,3.75-16.09,8.31-39.65-3.32-53.14-21.19-24.58-53.09-28.79-83.57-22.13-2.27.5-6.78,2.35-8.58,2.42s-4.82-1.08-6.77-1.34c-16.09-2.12-32.24-1.31-46.01,8.08C85.21,11.52,42.62,4.97,23.37,33.51c-17.32,25.67-7.36,65.79.04,93.62,4.9,18.42,17.48,60.9,34.47,70.55,15.44,8.77,24.17-6.89,32.86-16.68,4.03-4.54,8.25-8.92,12.24-13.5,4.9,2,9.94,3.98,15.36,3.96.46.4-3.8,5.66-4.35,6.23-6.4,6.6-22.15,4.52-26.04,11.32-4.06,7.11,4.96,11.74,10.56,13.28,12.95,3.56,26.91,1.59,37.26-7.17.12,5.05-.14,10.12-.01,15.17.69,28.47.26,68.64,41.12,60.18,28.58-5.92,29.32-24.73,32.73-49.46,1.34-9.7,2.33-19.47,3.38-29.21Z"/>
  <path d="M218.81,73.9h-13.08c-4.64,0-12.71,4.39-15.57,8.09-13.78,17.83,10.52,53.6,18.34,70.49l8.64,12.73c-6.66,1.31-10.62,7.48-11.2,13.92-1.66,18.5-3.13,37.19-6.3,55.55-2.53,14.65-5.46,22.59-20.69,27.05-37.31,10.92-34.35-26.69-34.85-51.49-.11-5.64-.5-11.31-.45-17.02.06-6.63,1.77-13.37-1.42-19.72-2.86-5.7-8.77-9-15.17-8.29,4.08-13.86,11.94-25.78,13.28-40.47.92-10.12-.68-33.9-6.88-42.09-9.74-12.87-29.18-6.8-41.26-.87,2.21-22.53,10.5-48.64,33.22-57.89,12.31-5.01,27.66-4.32,40.34-.93,24.86,6.65,44.31,27.24,53.04,50.94Z"/>
  <path d="M65.55,20.89c6.85-.29,14.18.52,20.92,1.67,1.97.34,19.01,3.96,19.01,5.06-11.49,11.92-17.64,28.34-20.21,44.54-2.41,15.18-.21,28.89-.93,43.9-.36,7.5-2.23,14.33-1.21,21.93,1.31,9.77,6.02,18.26,13.13,24.95l-23.76,26.79c-9.96,8.63-19.48-7.55-23.53-15.09-6.18-11.49-10.93-25.53-14.66-38.05C22.66,97.52,2.63,23.56,65.55,20.89Z"/>
  <path d="M222.95,158.16l-1.55-1.03c5.2-8.11,6.56-17.88,6.12-27.4-.29-6.35-1.81-12.73-2.09-19.08-.74-16.68,6.32-27.05-.74-44.09-8.9-21.48-23.91-35.68-43.95-46.54-.39-.21-.91-.4-.96-.91,18.56-3.09,38.24-2.64,55.07,6.57,6.93,3.79,19.3,13.6,21.42,21.33,3.49,12.68-1.01,33.28-4.48,45.98-6.29,23.02-16.71,44.77-28.86,65.17Z"/>
  <path d="M114.53,83.16c12.39-.81,14.26,5.55,16.14,15.99,1.78,9.82,2.58,19.74.83,29.63-2.13,12.03-9.33,22.49-12.1,34.39-.79,1.05-5.95-.26-7.27-.64-9.76-2.76-17.83-11.98-20.22-21.7-2.26-9.21.38-18.39.72-27.67.27-7.18-.75-14.24-.22-21.39,5.87-4.5,14.67-8.11,22.12-8.6ZM114.92,87.28c-7.09,1.19-1.24,9.02,3.64,9.45,5.36.48,11.4-5.32,5.05-8.38-2.4-1.16-6.08-1.51-8.69-1.07Z"/>
  <path d="M219.64,82.2c.34,6.37-1.52,12.59-2.07,18.89-1.12,12.7,2.57,24.81,1.67,37.37-.06.79-2.06,11.95-3.33,10.98-3.07-8.13-8.17-15.31-11.99-23.09-4.58-9.32-14.31-30.55-7.04-39.73,4.53-5.72,16.19-5.08,22.76-4.43ZM205.84,85.22c-3.38.46-8.87,2.93-4.68,6.54,2.99,2.57,7.48,2.15,10.17-.63,4.73-4.89-1.12-6.5-5.49-5.91Z"/>
  <path d="M96.35,193.03c-.13-1.01,0-.66.58-.87,8.31-3.06,15.99-1.79,22.88-9.08,2.19-2.32,6.97-10.43,10.26-9.89,4.08.66,6.76,6.05,5.53,9.91-.19.58-1.96,2.66-2.51,3.3-9.05,10.65-24.43,11.84-36.74,6.63Z"/>
  <path d="M255.75,174.36c-5.61,5.73-13.71,8.58-21.5,9.84-3.53.57-18.02,1.94-20.04-.89-.89-1.24.19-6.31,1.09-7.69,1.04-1.61,4.05-3.04,5.91-3.27,1.18-.15,5.27,2.41,7.24,2.95,8.68,2.39,18.62.76,27.31-.94Z"/>
</svg>