<?xml version="1.0" encoding="UTF-8"?>
<svg id="Layer_1" data-name="Layer 1" xmlns="http://www.w3.org/2000/svg" viewBox="0 0 281 281">
  <path d="M134.89,6.07c106.26-5.53,178.75,112,122.6,204.06-54.74,89.75-190.01,86.05-238.32-8.14C-26.64,112.7,36.89,11.17,134.89,6.07ZM173.01,60.02c-.44-3.7,0-8.75,0-12.65,0-.45,1.71-2.12.4-2.76-14.55,13.83-13.36,36.18-17.02,54.56l-2.61-19.91c-.96-4.5-1.86-9.05-3.14-13.47-4.12-14.28-15.34-28.42-10.06-43.32-6.75.8-11.73,9.06-13.81,15.05-2.5,7.21-1.76,13.7-2.81,20.92-1.52,10.5-2.8,21.59-9.09,30.46-2.33-7.99-1.91-16.66-5.53-24.51-.59-1.28-8.33-12.92-9.88-11.07,2.43,15.25-5.2,28.4-9.27,42.53-4.89,16.97-8.88,31.72-.66,48.45,1.85,3.77,4.9,7.23,6.76,11.03l-39.14-7.91c-2.86-.13,4.98,14.71,5.59,15.77,2.01,3.47,11.64,17.6,14.98,18.24l124.2.07c4.29-.32,8.43-6.2,10.96-9.61,2.26-3.05,13.65-22.01,11.53-24.45l-41.91,7.9c2.78-6.09,6.43-11.7,8.3-18.19,3.75-13.02,3.23-25.58-1.15-38.39-4.22-12.35-15.08-25.56-16.64-38.72ZM204.65,193.28H76.52v22.94h128.13v-22.94ZM101.83,226.5c1.62,34.76,52.51,41.95,71.95,16.99,1.7-2.18,8.97-16.99,4.37-16.99h-76.32Z"/>
</svg>