<?xml version="1.0" encoding="UTF-8"?>
<svg id="Layer_1" data-name="Layer 1" xmlns="http://www.w3.org/2000/svg" viewBox="0 0 281 281">
  <path d="M3.92,79.6c.02-.07.38-.07.48-.32.4-1.03.34-1.65,1.24-2.63,3.1-3.38,17.03-8.07,21.95-10.03,31.98-12.77,65.22-26.52,97.66-37.79,14.61-5.08,21.26-6.93,36.43-1.73,34.84,14.25,70.49,26.68,105.29,41.03,2.85,1.18,9.63,3.58,10.16,7.03l.03,27.74c.02.44-.19.79-.34,1.17-1.89,4.83-15.44,10.67-20.28,12.91-25.06,11.58-50.92,21.53-76.13,32.78-8.87,3.96-18.09,9.04-26.95,12.57-18.54,7.39-27.35,0-43.75-6.92-28.04-11.83-56.52-22.83-84.36-35.1-5.04-2.22-17.33-7.13-20.47-11.21-.47-.61-.89-1.21-1.03-1.99l.08-27.5ZM163.41,39.7l-18.2,5.64-18.9-7.15,5.6,11.17-19.48,7.84,26.85,2.26,8.59,14.03,5.48-12.62,23.33-2.47-17.79-6.95,4.51-11.75ZM241.85,76.21l-37.23-14.48-40.77,15.96-.43.63,37.26,14.44,40.79-15.88.38-.67ZM81.9,65.13c-7.88.35-18.74,1.98-25.49,6.19-6.05,3.77-6.97,9.03-.79,13.28,13.04,8.94,45.04,8.8,58.41.6,5.64-3.46,7.31-8.4,1.52-12.86-7.83-6.03-24.03-7.63-33.65-7.2ZM165.53,91.89l-63.05,9.95,43.86,18.08,19.19-28.03Z"/>
  <path d="M277.15,149.96c-.74,4.43-12.85,10-16.79,11.87-26.11,12.46-53.78,22.85-80.26,34.68-8.23,3.68-16.44,8.05-24.63,11.57-20.44,8.78-29.28.88-47.58-6.83-29.42-12.39-60.34-23.82-89.19-37.21-3.16-1.47-6.83-3.16-9.73-5.06-1.86-1.21-4.08-2.69-4.64-5l-.06-26.8c1.34,2.35,3.69,3.83,5.98,5.18,3.41,2,7.53,3.79,11.16,5.43,27.33,12.4,56.02,23.18,83.76,34.8,6.81,2.85,13.5,6.16,20.32,8.94,18.95,7.73,27.68-.1,44.14-7.55,29.15-13.2,59.1-24.8,88.1-38.3,6.77-3.15,14.62-6.27,19.41-12.12v26.4Z"/>
  <path d="M277.15,194.91c-.84,4.12-11.32,9.19-14.98,10.97-31.1,15.15-64.61,27.49-96.25,41.92-14.91,6.8-23.07,13.09-40.21,6.23-8.82-3.53-17.48-7.77-26.27-11.44-25.59-10.71-51.84-20.76-77.12-32.08-4.04-1.81-15.79-6.69-17.56-10.49-.24-.52-.38-1.08-.5-1.63.21-8.58-.29-17.2-.14-25.78,0-.34-.18-.84.31-.76.66,2.26,3.09,3.87,5.04,5.07,3.19,1.97,7.3,3.67,10.75,5.24,29.28,13.29,60,24.8,89.71,37.3,15.87,6.68,24.95,14.33,42.93,7.44,9.38-3.6,19.64-9.28,29.06-13.47,27.2-12.1,56.56-22.84,82.97-36.19,4.42-2.23,9.31-4.66,12.26-8.7v26.4Z"/>
</svg>