<?xml version="1.0" encoding="UTF-8"?>
<svg id="Layer_1" data-name="Layer 1" xmlns="http://www.w3.org/2000/svg" viewBox="0 0 281 281">
  <path d="M216.71,256c-59.58,43.15-139.48,28.67-182.47-29.81C-11.24,164.34.11,74.19,61.1,27.21c49.59-38.2,118.19-35.92,165.24,5.23,67.85,59.35,63.55,170.57-9.63,223.56ZM149.79,91.41l-15.62,3.33v13.56l15.62-3.58v-13.3ZM86.05,98.83l-15.37,3.75.04,54.42c.72,5.41,3.56,10.45,8.5,13,5.36,2.76,13.35,2.36,18.6-.43v-13.17c-3.06,1.04-7.9,1.98-10.34-.79-.4-.45-1.43-2.69-1.43-3.17v-25.2h11.78v-14.07h-11.78v-14.33ZM64.55,114.94c-12.15-5.01-32.74-4.8-36.18,11.04-2.29,10.55,2.57,16.23,11.69,20.21,3.02,1.32,6.62,2.12,9.37,3.94,4.02,2.68,2.49,7.05-2.16,7.52-6.34.64-13.2-2.54-18.81-5.11v15.22c0,.45,2.21,1.23,2.68,1.41,15.08,5.69,38.38,2.83,36.45-18.01-1.22-13.21-12.45-12.96-21.13-17.76-1.95-1.08-3.45-2.94-2.33-5.23,1.81-3.7,11.92-1.05,15.04-.06,1.96.63,3.6,1.42,5.38,2.43v-15.6ZM171.3,167.64c9.03,7.29,21.04,4.48,27.24-4.88,6.36-9.6,6.87-26.47,2.42-36.91-5.41-12.69-19.29-18.87-30.56-8.87-.35,0-.81-3.25-.9-3.83h-13.82v76.49l15.62-3.33v-18.67ZM249.89,167.26v-12.66c-1.78.48-3.41,1.31-5.18,1.86-8.41,2.63-21.63,3.24-22.21-8.51h30.46c.85-10.51-.56-23.07-8.57-30.7-2.73-2.6-7.49-4.8-11.27-5.11-22.5-1.83-29.96,22.9-25.14,40.98,4.05,15.21,17.27,20.94,32.19,17.99,1.5-.3,9.35-2.6,9.72-3.85ZM130.34,128.25v-14.97c0-.46-2.9-.88-3.44-.9-3.99-.17-7.67,1.84-9.48,5.38-.45,0-.66-4.18-1.28-4.61h-13.44v57.17s.36.38.38.38h15.1s.38-.36.38-.38v-38.88c0-.21,2.32-2.15,2.73-2.39,2.69-1.55,6.1-1.58,9.04-.81ZM149.79,113.15h-15.62v57.3h15.62v-57.3Z"/>
  <path d="M178.38,126.55c13.97-.29,13.32,34.45-2.21,30.47-1.64-.42-4.75-1.66-4.88-3.56l.07-23.5c.42-1.84,5.32-3.38,7.03-3.41Z"/>
  <path d="M238.37,135.92h-16.13c-.39-13.85,16.61-14.09,16.13,0Z"/>
</svg>