<?xml version="1.0" encoding="UTF-8"?>
<svg id="Layer_1" data-name="Layer 1" xmlns="http://www.w3.org/2000/svg" viewBox="0 0 281 281">
  <path d="M70.13,140.5c1.49-.03,3.01-.05,4.5,0s2.98.19,4.5.3c1.4.1,3.17.14,4.5.3.19.02.41-.03.6,0l.3.3c1.09.15,2.54.11,3.6.3,1.27.23,3.14.86,4.5,1.2,3,.75,6.08,1.59,8.99,2.7,1.59.6,3.25,1.38,4.8,2.1.31.14.67.19.9.3,1.03.5,2.27,1.23,3.3,1.8,3.01,1.68,6.25,3.9,8.99,5.99.36.28.86.63,1.2.9,1.03.81,2.31,1.85,3.3,2.7.64.55,1.55,1.3,2.1,1.8.76.69,1.58,1.62,2.4,2.4.7.67,1.39,1.41,2.1,2.1s1.39,1.41,2.1,2.1c.91.88,1.78,1.81,2.7,2.7.7.68,1.39,1.41,2.1,2.1s1.37,1.41,2.1,2.1c.71.68,1.36,1.41,2.1,2.1,1.01.93,1.95,1.81,3,2.7.48.41,1,.8,1.5,1.2,3.3,2.64,5.28,4.25,9.29,5.99,3.17,1.38,5.58,2.08,8.99,2.7,1.76.32,2.65.49,4.5.6.79.05,1.6-.02,2.4,0h.3c.2,0,.4,0,.6,0h.3c.3,0,.6,0,.9,0,1.48-.04,2.89-.03,4.5-.3,3.12-.53,6.07-1.52,8.99-2.7,3.85-1.56,5.91-3.05,8.99-5.4,1.2-.91,1.84-1.39,3-2.4.41-.36.89-.63,1.5-1.2,1.17-1.09,2.2-2.14,3.3-3.3.57-.6.87-1.14,1.2-1.5.96-1.06,1.74-1.86,2.7-3,.36-.43,1.08-1.04,1.5-1.5.07.53-.21,1-.3,1.5-.28,1.55-.73,3-1.2,4.5-.42,1.34-1.02,3.2-1.5,4.5-1.07,2.9-2.48,6.24-3.9,8.99-1.44,2.79-3.61,6.4-5.4,8.99-.32.46-.67,1.19-.9,1.5-.58.79-2.21,1.69-2.4,3-.87.2-1.55,1.85-2.1,2.4-.4.41-2.15.91-2.1,2.1-.72.15-1.82,1.62-2.4,2.1s-2.41,1.18-2.4,2.1c-1-.03-1.63,1.2-2.1,1.5-2.75,1.73-6.15,3.77-8.99,5.1-2.69,1.26-6.41,2.48-9.29,3.3-1.21.34-3.14.97-4.2,1.2-1.35.29-3.1.41-4.5.6l-8.99,1.2h-12.59c-1.63-.72-3.74-.4-5.4-.6-1.54-.19-3.25-.63-4.8-.9-1.27-.22-3.02-.31-4.2-.6s-3.18-1.09-4.5-1.5c-2.96-.92-6.14-2.09-8.99-3.3-.64-.27-1.21-1.02-2.4-1.2-.52-.76-1.8-.83-2.4-1.2-1.26-.77-2.91-1.84-4.2-2.7-.29-.2-.61-.4-.9-.6-1.03-.7-2.58-1.92-3.6-2.7-.87-.66-1.87-1.41-2.7-2.1-.55-.46-1.29-1.06-1.8-1.5-8.88-7.74-16.49-18.58-26.68-24.58-.42-.25-.08-.48-1.2-.6-.95-1.15-2.61-1.5-3.9-2.1-1.53-.71-2.32-1.29-4.2-1.8-3.02-.82-6.17-1.23-9.29-1.5-1.91-.17-2.36-.12-4.2,0-3.09.2-5.66.42-8.69,1.2-1.76.45-3.19,1.11-4.8,1.8-3.84,1.65-5.73,3.02-8.99,5.4-.44.32-1.7.32-1.5,1.2-1.06-.03-5.78,4.93-6.75,5.99-.37.4-.52.95-.74,1.2-.58.66-1.19,1.35-1.8,2.1s-1.41,1.5-2.1,2.4c-.59-.28-.11-.95,0-1.35.49-1.82.93-3.76,1.5-5.55.46-1.44.97-3.1,1.5-4.5.96-2.54,2.64-6.55,3.9-8.99.45-.87,1.29-2.41,1.8-3.3.04-.07.48-.49.9-1.2.81-1.36,2.46-3.17,3-4.5.07-.18.26-.31.3-.6,1.29-1.11,2.19-2.62,3.3-3.9.41-.47.97-1.26,1.2-1.5.83-.89,2.07-1.85,3-2.7.52-.48,1.08-1.14,1.5-1.5,1.16-.99,2.96-2.42,4.2-3.3.12-.08.2-.23.3-.3,1.23-.85,3.16-1.95,4.5-2.7.6-.34,1.64-.97,2.1-1.2.73-.37,1.71-.88,2.4-1.2,1.13-.52,3.32-1.36,4.5-1.8,2.78-1.03,6.39-2.08,9.29-2.7,1.21-.26,3.36-.73,4.5-.9s2.68-.16,3.9-.3c1.49-.17,3.47-.52,4.8-.6,1.48-.08,3.01.03,4.5,0Z"/>
  <path d="M146.56,57.78l9.29,1.2c1.32.26,2.93.33,4.2.6,1.13.24,3.27.85,4.5,1.2,1.39.39,3.11,1,4.5,1.5.15.05.35.21.6.3,1.29.49,2.63.94,3.9,1.5s3.3,1.47,4.5,2.1c.4.21.87.42,1.2.6.74.41,2.39,1.53,3.3,2.1,2.98,1.87,6.27,4.35,8.99,6.59.11.09.19.21.3.3,1.34,1.12,2.93,2.43,4.2,3.6.16.15.56.57.9.9,1.11,1.05,2.19,2.22,3.3,3.3.4.39.79.8,1.2,1.2,1.21,1.17,2.38,2.42,3.6,3.6.3.29.59.6.9.9,1.22,1.18,2.35,2.42,3.6,3.6.29.27.55.58.9.9,1.17,1.08,2.45,2.03,3.6,3,.39.33,1.01,1.18,1.8,1.8.9.71,1.81,1.18,2.7,1.8,3.39,2.37,4.89,3.44,8.99,4.8,1.79.59,3.01.82,4.8,1.2,1.6.34,2.7.74,4.5.9,1.32.11,2.84-.01,4.2,0,2.16.02,2.36,0,4.5-.3,1.52-.21,2.93-.24,4.5-.6,1.74-.4,2.7-.94,4.2-1.5s2.97-1.02,4.5-1.8c.11-.06.2-.25.3-.3,1.61-.84,3-1.68,4.5-2.7.96-.66,1.5-1.11,2.4-1.8.99-.77,1.54-1.35,2.4-2.1.92-.8,1.76-1.49,2.7-2.4.53-.51.99-.97,1.5-1.5,1.07-1.12,1.71-1.83,2.7-3,.73-.86,1.45-1.97,2.1-2.7.16-.18.59-.32.75-.6.1,1.08-.43,2.47-.75,3.6-.82,2.87-1.67,5.9-2.7,8.69-.42,1.14-1.84,3-2.1,4.5-.02.1.01.2,0,.3-1.04,1.14-1.41,2.91-2.1,4.2-1.47,2.77-3.81,6.49-5.69,8.99-.31.42-.87,1.1-1.2,1.5-.75.91-1.6,1.82-2.4,2.7-.64.7-1.61,1.9-2.1,2.4-.83.85-2.07,1.32-2.7,2.4-.99.18-1.31,1.13-1.8,1.5-1.31.97-2.77,1.8-3.9,3-.37.05-.45.24-.6.3-2.78,1.11-6.11,3.55-8.99,4.8-1.18.51-3.33,1.4-4.5,1.8-2.63.91-6.54,1.86-9.29,2.4-1.2.23-2.93.43-4.2.6-1.49.2-3,.47-4.5.6-1.4.12-3.14.24-4.5.3-1.49.06-3.01,0-4.5,0-1.19,0-2.41.04-3.6,0-1.83-.07-3.88-.13-5.69-.3-1.25-.12-2.86-.41-4.2-.6-1.43-.2-3.11-.33-4.5-.6-.41-.08-1.18-.46-1.8-.6-.88-.2-1.83-.37-2.7-.6-1.6-.43-3.21-1.01-4.8-1.5s-3-1-4.5-1.5c-.44-.15-.46-.48-1.5-.6-.4-1.02-1.8-.91-2.4-1.2-1.64-.8-3.07-1.97-4.8-2.7-.4-.17-.58-.51-1.2-.6-.54-1.19-2.43-1.5-3.3-2.1-11.49-7.88-20.14-21.04-31.17-28.47-.51-.35-.43-.76-1.5-.9-.63-1.1-1.98-1.48-3-2.1-1.28-.78-2.9-2.14-4.5-2.4-.19-.03-.4.02-.6,0-1.01-1.13-2.83-1.19-4.2-1.5-1.63-.37-3.13-.66-4.8-.9-1.57-.22-2.71-.26-4.2-.3-.3,0-.6,0-.9,0l-.15-.29-.15.29c-.2,0-.4,0-.6,0l-.15-.29-.15.29c-.79.02-1.61-.05-2.4,0-1.75.12-2.79.27-4.5.6-3.4.66-5.87,1.56-8.99,3-3.53,1.63-6.31,3.53-9.29,5.99-.71.59-1.41,1.18-2.1,1.8-.77.69-1.38,1.4-2.1,2.1-.83.81-1.6,1.55-2.4,2.4-.94,1.01-1.5,1.58-2.4,2.7-.45.57-1.45,1.08-1.5,2.1-.24.04-.55.43-.75.6-.31.01-.08-.55-.15-.6.48-1.55.7-3.26,1.2-4.8.41-1.26,1.03-2.88,1.5-4.2.16-.45.19-.91.3-1.2.29-.79,1.06-2.19,1.5-3.3.59-1.49,1.2-3.05,1.8-4.5.19-.46.75-.37.9-1.8,1.12-.45,1.17-2.13,1.5-2.7.63-1.08,2.74-3.33,3-4.5.02-.09-.01-.2,0-.3,1.47-.95,2.25-2.91,3.3-4.2.4-.49.79-1.02,1.2-1.5.61-.71,2.12-2.42,2.7-3,.63-.63,1.49-1.54,2.1-2.1.55-.49,2.33-1.89,3-2.4.38-.29.82-.62,1.2-.9,2.44-1.77,6.61-4.35,9.29-5.69,2.6-1.3,5.9-2.42,8.69-3.3,1.28-.4,3.45-1.25,4.5-1.5,1.18-.28,2.92-.38,4.2-.6,3.31-.58,6.64-1.05,10.01-1.22l.48-.28h12.29Z"/>
</svg>