<?xml version="1.0" encoding="UTF-8"?>
<svg id="Layer_1" data-name="Layer 1" xmlns="http://www.w3.org/2000/svg" viewBox="0 0 305.74 305.74">
  <path d="M285.4,28.2c2.88-.56,7.93-1.23,10.33.36l2.14,8.79c-16.74,72.69-28.54,146.7-45.59,219.3-2.74,11.68-1.83,27.31-17.81,19.36-17.78-8.85-40.94-32.19-59.5-43.59-6.21-3.82-10.31-7.63-18.47-4.32-8.12,4.51-35.57,32.44-42.08,33.1-3.44.35-7.93-3.46-8.85-6.92l-25.36-80.93-67.44-25.86c-7.24-3.84-6-11.09.75-14.69L285.4,28.2ZM110.62,225.56l4.98-.71c2.87-2.12,3.68-24.97,5.26-30.71,2.57-9.28,18.17-22.62,25.73-29.89,24.14-23.21,50.25-44.73,74.59-67.76,3.47-3.28,11.68-10.57,13.89-13.94,1.41-2.15,1.62-3.75-.86-4.09l-135.14,82.5c-1.32,1.49-2.46,3.35-2.89,5.31-2.97,13.48,12.48,44.4,14.44,59.28Z"/>
</svg>