<?xml version="1.0" encoding="UTF-8"?>
<svg id="Layer_1" data-name="Layer 1" xmlns="http://www.w3.org/2000/svg" viewBox="0 0 281 281">
  <path d="M26.92.21l225.18-.21c15.26,1.48,27.42,13.61,28.9,28.9v223.2c-1.48,15.26-13.61,27.42-28.9,28.9H28.9c-15.26-1.48-27.42-13.61-28.9-28.9L.03,28.2C1.84,13.9,12.74,2.57,26.92.21ZM166.84,125.14h-92.19v22.68h32.19v101.7h26.34v-101.7h32.56l1.1-1.1v-21.58ZM171.96,217.32v27.07c32.58,9.14,82.27,10.66,77.55-36.94-2.44-24.61-29.45-27.32-44.56-38.85-13-9.92-4.76-22.25,9.17-23.62,11.12-1.1,20.51,3.55,30.27,7.95l.67-24.08c-30.84-7.76-78.91-7.81-73.75,36.8,2.78,24.07,28.84,28.11,44.06,39.35,5.18,3.83,7.97,8.13,5.46,14.71-4.3,11.28-23.78,8.28-32.74,5.25-5.66-1.92-10.7-5.26-16.13-7.65Z"/>
</svg>