<?xml version="1.0" encoding="UTF-8"?>
<svg id="Layer_1" data-name="Layer 1" xmlns="http://www.w3.org/2000/svg" viewBox="0 0 430 220">
  <defs>
    <style>
      .cls-1 {
        fill: #dadbde;
      }

      .cls-2 {
        fill: #931a3b;
      }

      .cls-3 {
        fill: #72152b;
      }

      .cls-4 {
        fill: #ab1840;
      }

      .cls-5 {
        fill: #a01a40;
      }

      .cls-6 {
        fill: #530014;
      }

      .cls-7 {
        fill: #961a3c;
      }

      .cls-8 {
        fill: #911837;
      }

      .cls-9 {
        fill: #9b173a;
      }

      .cls-10 {
        fill: #b02541;
      }

      .cls-11 {
        fill: #851933;
      }

      .cls-12 {
        fill: #7e142e;
      }

      .cls-13 {
        fill: #bbb9bd;
      }

      .cls-14 {
        fill: #bb2946;
      }

      .cls-15 {
        fill: #891633;
      }

      .cls-16 {
        fill: #b2a8ab;
      }

      .cls-17 {
        fill: #850121;
      }

      .cls-18 {
        fill: #9c1b3e;
      }

      .cls-19 {
        fill: #b82844;
      }

      .cls-20 {
        fill: #3c0001;
      }

      .cls-21 {
        fill: #bab9be;
      }

      .cls-22 {
        fill: #a81c44;
      }

      .cls-23 {
        fill: #bf3e5a;
      }

      .cls-24 {
        fill: #b10031;
      }

      .cls-25 {
        fill: #e83558;
      }

      .cls-26 {
        fill: #a31a41;
      }

      .cls-27 {
        fill: #940121;
      }

      .cls-28 {
        fill: #c6bfc3;
      }

      .cls-29 {
        fill: #d78896;
      }

      .cls-30 {
        fill: #f6ecef;
      }

      .cls-31 {
        fill: #360000;
      }

      .cls-32 {
        fill: #78172d;
      }

      .cls-33 {
        fill: #ab1d46;
      }

      .cls-34 {
        fill: #981839;
      }

      .cls-35 {
        fill: #8b1736;
      }

      .cls-36 {
        fill: #cfc9cd;
      }

      .cls-37 {
        fill: #851b31;
      }

      .cls-38 {
        fill: #cad6da;
      }

      .cls-39 {
        fill: #a91236;
      }

      .cls-40 {
        fill: #6a132a;
      }

      .cls-41 {
        fill: #6e132a;
      }

      .cls-42 {
        fill: #6e0010;
      }

      .cls-43 {
        fill: #981f38;
      }

      .cls-44 {
        fill: #981b3d;
      }

      .cls-45 {
        fill: #ca2d4c;
      }

      .cls-46 {
        fill: #a71b43;
      }

      .cls-47 {
        fill: #480712;
      }

      .cls-48 {
        fill: #c4435f;
      }

      .cls-49 {
        fill: #8f1939;
      }

      .cls-50 {
        fill: #a41c42;
      }

      .cls-51 {
        fill: #d78494;
      }

      .cls-52 {
        fill: #7f0119;
      }

      .cls-53 {
        fill: #e48c9a;
      }

      .cls-54 {
        fill: #dc96a2;
      }

      .cls-55 {
        fill: #be3d59;
      }

      .cls-56 {
        fill: #6b132a;
      }

      .cls-57 {
        fill: #210000;
      }

      .cls-58 {
        fill: #4c0005;
      }

      .cls-59 {
        fill: #8f1d35;
      }

      .cls-60 {
        fill: #3d0000;
      }

      .cls-61 {
        fill: #be5267;
      }

      .cls-62 {
        fill: #5c0517;
      }

      .cls-63 {
        fill: #e08697;
      }

      .cls-64 {
        fill: #a3233b;
      }

      .cls-65 {
        fill: #480000;
      }

      .cls-66 {
        fill: #4f0614;
      }

      .cls-67 {
        fill: #e23356;
      }

      .cls-68 {
        fill: #a4173e;
      }

      .cls-69 {
        fill: #595661;
      }

      .cls-70 {
        fill: #300;
      }

      .cls-71 {
        fill: #c23858;
      }

      .cls-72 {
        fill: #9d1a3e;
      }

      .cls-73 {
        fill: #a81a40;
      }

      .cls-74 {
        fill: #700011;
      }

      .cls-75 {
        fill: #a10e2f;
      }

      .cls-76 {
        fill: #ad1d47;
      }

      .cls-77 {
        fill: #881734;
      }

      .cls-78 {
        fill: #af1c47;
      }

      .cls-79 {
        fill: #9e1a3c;
      }

      .cls-80 {
        fill: #80192f;
      }

      .cls-81 {
        fill: #d7dbdd;
      }

      .cls-82 {
        fill: #44020f;
      }

      .cls-83 {
        fill: #9c193d;
      }

      .cls-84 {
        fill: #7c192e;
      }

      .cls-85 {
        fill: #a4223c;
      }

      .cls-86 {
        fill: #42030e;
      }

      .cls-87 {
        fill: #3a0000;
      }

      .cls-88 {
        fill: #8d1735;
      }

      .cls-89 {
        fill: #b01c47;
      }

      .cls-90 {
        fill: #eecacf;
      }

      .cls-91 {
        fill: #ac1d46;
      }

      .cls-92 {
        fill: #dd9ca7;
      }

      .cls-93 {
        fill: #4b0713;
      }

      .cls-94 {
        fill: #b12548;
      }

      .cls-95 {
        fill: #841d2f;
      }

      .cls-96 {
        fill: #640f26;
      }

      .cls-97 {
        fill: #4a0713;
      }

      .cls-98 {
        fill: #a01c41;
      }

      .cls-99 {
        fill: #7f172f;
      }

      .cls-100 {
        fill: #cc6276;
      }

      .cls-101 {
        fill: #a2183d;
      }

      .cls-102 {
        fill: #79182d;
      }

      .cls-103 {
        fill: #9d2042;
      }

      .cls-104 {
        fill: #400000;
      }

      .cls-105 {
        fill: #7d1a2e;
      }

      .cls-106 {
        fill: #3e020d;
      }

      .cls-107 {
        fill: #891e32;
      }

      .cls-108 {
        fill: #5e111d;
      }

      .cls-109 {
        fill: #601321;
      }

      .cls-110 {
        fill: #6a0110;
      }

      .cls-111 {
        fill: #860420;
      }

      .cls-112 {
        fill: #e1adb6;
      }

      .cls-113 {
        fill: #ba284b;
      }

      .cls-114 {
        fill: #530011;
      }

      .cls-115 {
        fill: #dd9aa6;
      }

      .cls-116 {
        fill: #df8d9c;
      }

      .cls-117 {
        fill: #df9fab;
      }

      .cls-118 {
        fill: #8c1734;
      }

      .cls-119 {
        fill: #8c1735;
      }

      .cls-120 {
        fill: #a31b42;
      }

      .cls-121 {
        fill: #7f0015;
      }

      .cls-122 {
        fill: #5e010b;
      }

      .cls-123 {
        fill: #75162c;
      }

      .cls-124 {
        fill: #da7c8c;
      }

      .cls-125 {
        fill: #b71b46;
      }

      .cls-126 {
        fill: #8e011e;
      }

      .cls-127 {
        fill: #7e001f;
      }

      .cls-128 {
        fill: #f7f0f1;
      }

      .cls-129 {
        fill: #621026;
      }

      .cls-130 {
        fill: #950127;
      }

      .cls-131 {
        fill: #7e192f;
      }

      .cls-132 {
        fill: #ae354f;
      }

      .cls-133 {
        fill: #f4ebed;
      }

      .cls-134 {
        fill: #e7b9c1;
      }

      .cls-135 {
        fill: #c3c3c7;
      }

      .cls-136 {
        fill: #b01942;
      }

      .cls-137 {
        fill: #bc1a47;
      }

      .cls-138 {
        fill: #9d0b2d;
      }

      .cls-139 {
        fill: #9f0c2e;
      }

      .cls-140 {
        fill: #4c0000;
      }

      .cls-141 {
        fill: #730011;
      }

      .cls-142 {
        fill: #bab8bd;
      }

      .cls-143 {
        fill: #fefdfd;
      }

      .cls-144 {
        fill: #a21c41;
      }

      .cls-145 {
        fill: #cf6b7f;
      }

      .cls-146 {
        fill: #b71945;
      }

      .cls-147 {
        fill: #b51e4a;
      }

      .cls-148 {
        fill: #5c0e1a;
      }

      .cls-149 {
        fill: #730114;
      }

      .cls-150 {
        fill: #e33254;
      }

      .cls-151 {
        fill: #770013;
      }

      .cls-152 {
        fill: #4b0204;
      }

      .cls-153 {
        fill: #480507;
      }

      .cls-154 {
        fill: #9f193c;
      }

      .cls-155 {
        fill: #9f183c;
      }

      .cls-156 {
        fill: #ccd8db;
      }

      .cls-157 {
        fill: #bd1e49;
      }

      .cls-158 {
        fill: #68000e;
      }

      .cls-159 {
        fill: #f1dde0;
      }

      .cls-160 {
        fill: #c76678;
      }

      .cls-161 {
        fill: #6b000e;
      }

      .cls-162 {
        fill: #68071c;
      }

      .cls-163 {
        fill: #8c1e33;
      }

      .cls-164 {
        fill: #970229;
      }

      .cls-165 {
        fill: #c92c4b;
      }

      .cls-166 {
        fill: #921b3a;
      }

      .cls-167 {
        fill: #891a34;
      }

      .cls-168 {
        fill: #4b0000;
      }

      .cls-169 {
        fill: #c43d5b;
      }

      .cls-170 {
        fill: #3b1115;
      }

      .cls-171 {
        fill: #c6c6c9;
      }

      .cls-172 {
        fill: #c62b49;
      }

      .cls-173 {
        fill: #af1842;
      }

      .cls-174 {
        fill: #e9bfc6;
      }

      .cls-175 {
        fill: #54020e;
      }

      .cls-176 {
        fill: #480612;
      }

      .cls-177 {
        fill: #cf6f82;
      }

      .cls-178 {
        fill: #851633;
      }

      .cls-179 {
        fill: #6f0113;
      }

      .cls-180 {
        fill: #230000;
      }

      .cls-181 {
        fill: #6d132a;
      }

      .cls-182 {
        fill: #2d0000;
      }

      .cls-183 {
        fill: #450813;
      }

      .cls-184 {
        fill: #a32342;
      }

      .cls-185 {
        fill: #450511;
      }

      .cls-186 {
        fill: #420001;
      }

      .cls-187 {
        fill: #50000c;
      }

      .cls-188 {
        fill: #cccbce;
      }

      .cls-189 {
        fill: #d52f4f;
      }

      .cls-190 {
        fill: #9a193d;
      }

      .cls-191 {
        fill: #c0405c;
      }

      .cls-192 {
        fill: #a2002b;
      }

      .cls-193 {
        fill: #fefefe;
      }

      .cls-194 {
        fill: #340000;
      }

      .cls-195 {
        fill: #64010e;
      }

      .cls-196 {
        fill: #edced3;
      }

      .cls-197 {
        fill: #911736;
      }

      .cls-198 {
        fill: #8e1d34;
      }

      .cls-199 {
        fill: #490000;
      }

      .cls-200 {
        fill: #873542;
      }

      .cls-201 {
        fill: #eed1d5;
      }

      .cls-202 {
        fill: #520716;
      }

      .cls-203 {
        fill: #a6183f;
      }

      .cls-204 {
        fill: #851832;
      }

      .cls-205 {
        fill: #350001;
      }

      .cls-206 {
        fill: #821631;
      }

      .cls-207 {
        fill: #590818;
      }

      .cls-208 {
        fill: #c3c5c9;
      }

      .cls-209 {
        fill: #b31944;
      }

      .cls-210 {
        fill: #801c2f;
      }

      .cls-211 {
        fill: #b21843;
      }

      .cls-212 {
        fill: #a11f43;
      }

      .cls-213 {
        fill: #770115;
      }

      .cls-214 {
        fill: #aa1840;
      }

      .cls-215 {
        fill: #d5d5d8;
      }

      .cls-216 {
        fill: #bb1544;
      }

      .cls-217 {
        fill: #380000;
      }

      .cls-218 {
        fill: #931938;
      }

      .cls-219 {
        fill: #510012;
      }

      .cls-220 {
        fill: #42020d;
      }

      .cls-221 {
        fill: #5f0b0f;
      }

      .cls-222 {
        fill: #961738;
      }

      .cls-223 {
        fill: #370001;
      }

      .cls-224 {
        fill: #d68393;
      }
    </style>
  </defs>
  <path class="cls-69" d="M423.5,125.68v2.78c-3.09,3.52-10.78,4.08-13.11-.44s.11-17.08-.83-22.8c-1.5-9.2-13.16.55-13.16,2.04v23.28h-10.43v-37.53h10.43c-.07,2.33.44,4.79-.69,6.94.94.79,5.45-4.61,6.72-5.44,7.65-5.02,16.57-3.82,17.6,6.49.48,4.8-1.03,20.45.35,23.28.55,1.13,1.95,1.49,3.13,1.39Z"/>
  <path class="cls-96" d="M45.42,52.01c1.42,1.36-1.29,3.91-2.78,2.78-5.63,4.58-11.56,10.39-15.99,15.99.54,1.54-1.89,4.18-3.47,4.17-1.36.68-2.29,1.84-2.78,3.48l-2.09,2.08c.9.65.39,1.41-.69,1.39.08,1.99-2.42,4.87-4.17,5.56l-2.08,3.48c.94.95.71,2.34-.7,4.17,1.71.99.48,3.77-1.39,3.47-.59.69-.82,1.85-.7,3.47,1.04,1.47,1.04,3.32,0,5.56,1.05,1.11,1.29,2.73.7,4.87,1,.05.92.97,0,1.39.6.23.6.46,0,.7.49,1.2,1.18,2.12,2.09,2.78,1.51-.28,1.91,1.27.69,2.08.58,1.91-1.01,2.34-2.09.69-1.34-2.75-2.41-5.48-3.48-8.34v-13.21c3.74-12.64,12.65-22.91,21.53-32.34,5.11-5.42,10.39-10.09,16-14.92,1.15-.7,1.71-.71,1.39.69Z"/>
  <path class="cls-69" d="M201.1,81.2l6.59,40.98c4.25-1.34,6.17-5.18,7.5-9.17,1.55-4.65,4.47-22.89-.93-25.25-1.36-.6-2.48.97-3.42-.65,3.21-11.11,14.13-8.25,15.26,2.78,1.74,17.02-5.62,46.46-28.53,41.04l-2.38-11.52c-3.49,9.07-10.66,13.36-20.41,11.73l-8.44-49.95h11.82l6.61,40.34c4.17.3,5.9-3.41,7.13-6.79,3.77-10.31-2.44-22.77-2.62-33.55h11.81Z"/>
  <path class="cls-69" d="M308.82,85.37v7.64h10.43v6.95h-10.43v19.11c0,3.83,4.31,6.37,7.94,5.9,1.52-.2,2.37-1.48,3.88-1.38,1.33,9.41-11.4,10-17.32,5.86-1.99-1.39-4.91-6.01-4.91-8.29v-21.2c0-.22-4.05.49-4.18-.4s-.23-6.32,0-6.55c.27-.27,3.9.28,4.18,0s-.2-6.41,0-7.65h10.42Z"/>
  <path class="cls-69" d="M354.69,27.68c.33.33-.35,6.95,0,6.95h10.43v6.95h-10.43v21.2c0,.26,1.33,2.11,1.72,2.45,4.06,3.5,9.73-.41,10.09-.01,1.4,10.6-14.94,10.44-19.76,4.13-.37-.49-2.47-4.22-2.47-4.48v-23.28c0-.24-4.22.18-4.86,0,1.56-1.41,0-5.85.3-6.26.95-1.33,4.25-.38,4.57-.67.26-.25-.19-5.79,0-6.95,1.55.27,10.06-.37,10.42,0Z"/>
  <path class="cls-69" d="M290.06,92.32c-.53,11.8-2.51,5.5-9.19,6.38-4.25.56-6.8,3.53-2.98,6.82,5.74,4.94,15.4,4.51,13.51,16.29s-26.06,15.15-26.36,1.09c3.76,1.01,11.87,4.17,14.91.67,4.47-5.15-5.57-8.11-8.6-10.13-9.25-6.15-6.15-18.09,4.07-20.82,5.05-1.35,9.55-.31,14.64-.3Z"/>
  <path class="cls-69" d="M334.19,33.94c.37.06,1.01.9,1.74.7l-1.4,6.95c-4.4-2.28-18.54-.17-11.09,5.88,5.61,4.55,15.93,5.19,13.56,16.4s-27.39,14.76-25.74.65c3.33,2.28,13.91,3.99,15.36-.67s-7.55-6.8-10.49-9.05c-6.11-4.68-6.33-13.55.12-17.95.73-.5,5.72-2.9,6.14-2.9,3.46,0,8.66-.48,11.81,0Z"/>
  <path class="cls-69" d="M359.56,99.61c-.43-1.53-2.09-1.63-3.4-1.36-2.1.44.25-3.21.92-3.9,4.88-4.98,13.38-.77,12.55,6.29,3.31-5.06,6.87-9.4,13.56-9.03-.14,1.84.48,9.54-.79,10.33-.77.48-4.32-.19-6.2.4-.63.2-6.22,4.51-6.22,4.9v23.28h-10.43v-30.93Z"/>
  <path class="cls-147" d="M338.01,188.23c-.89,1.04-1.32.59-.69-.7l-.83-.43c-.12-3.9-.38-7.86-.79-11.88-2.61,6.08-5.08,12.04-7.41,17.87-5.94,2.04-12.16,6.68-18.76,4.17l1.61-1.36c3.75.34,3.49-4.79,2.56-6.98,4.23,0,9.7.69,12.37-3.26,1.09-5.34-1.27-36.12.83-38.44l1.46,1.91-.21,12.9c2.4-3.99,4.06-8.73,5.34-13.32l1.74-1.49c1.21-.02,2.37-1.55,2.78,1.04v39.96Z"/>
  <path class="cls-178" d="M240.02,147.22c2.66,1.23.47,8.2-2.78,6.26-1.83-.63-6.59-.81-8.34,0,.53,12.39-2.65,23.05-9.5,33.36l-1.62-.7c-.11-12.96.09-25.96,0-38.92,7.78-.53,14.53-1.14,22.24,0Z"/>
  <path class="cls-123" d="M63.49,135.41l2.55-.23c.2,9.94,2.21,18.88,6.21,27.85-1.29,1.53-3.28,2.75-5.99,3.66-.73,2.13-6.25,4.26-8.34,2.78-1.09-.6-1.41-.97-2.09-1.39-.32-1.21.42-1.89,2.2-2.02-2.71-6.66-4.8-13.51-6.28-20.54-1.18-3.81-.75-6.48,1.29-8.02,2.17-2.23,7.59-3.61,10.43-2.08Z"/>
  <path class="cls-3" d="M128.82,70.77c4.08,4.53,7.81,8.72,11.12,13.9.59,2.83-.8,5.82-3.98,4.43-3.01-1.55-6.11-2.39-9.23-3.04.19.65-.05.88-.7.69l-1.47.1c-1.12-3.81-4-4.78-8.63-2.89-.58-.26-.9-.74-1.01-1.38-2.1-.33-4.07-.11-5.91.67l-.35-1.36c-2.12-1.85-1.8-6.88,0-9.03-.57-4.9.78-6.86,4.06-5.87,5.44.8,10.9,2.16,16.1,3.78Z"/>
  <path class="cls-3" d="M53.06,137.49c3.19.21-.58.42-.45,2.98.44,8.93,4.21,18.25,7.36,26.51l-4.13,1.09c-5.45-3.4-7.8-5.63-12.51-9.73-1.32-2.79-5.91-18.93-3.44-20.52,2.13.15,4.2.04,6.22-.33.66-2.42,5.72-1.25,6.95,0Z"/>
  <path class="cls-35" d="M240.02,147.22c7.65,1.13,12.01,3.01,13.9,11.12-2.02,5.93-4.33,11.72-6.95,17.38-5.63,3.94-16.94,6.29-16.68-3.47,4.46.1,7.46.7,10.42-3.13,3.74-4.83,2.78-13.47-3.47-15.63,1.98.39,2.67-4.39,2.78-6.26Z"/>
  <path class="cls-2" d="M271.99,147.22v18.76c-2.16,7.27-5.02,14.21-8.57,20.81l-1.86.04c.13-13.32-.1-26.29-.69-38.92l1.01-1.17,10.11.47Z"/>
  <path class="cls-77" d="M228.9,153.48v43.09h-11.12c-.02-3.47.03-6.96,0-10.42,1.28-.44,1.57-1.33,2.11-2.4,1.52-3.02,7.48-16.38,8.15-18.96.6-2.36-.64-10.6.86-11.3Z"/>
  <path class="cls-41" d="M35.69,135.41c1.27-.7,6.62.28,6.95,2.08,1.48-.34,2.64-.34,3.48,0-.12.01-.54.55-1.11.65-1.12.19-3.03-.23-3.66.14-2.35,1.37,1.53,14.12,2.2,16.74.26,1.01,1.15,2.62-.2,3.32-3.04-2.65-13.9-11.48-14.6-14.59-2.64-2.69-3.1-10.38,1.39-9.73,1.07-1.82,4.66.31,5.56,1.39Z"/>
  <path class="cls-40" d="M113.53,55.48c1.67,2.72-.2,3.41-5.59,2.07-.92.51-1.83.75-2.75.71-.69-.04-1.55-1.35-1.39-2.08-.96-.94-1.93-2.77-2.09-4.17-.96-.13-2.17-1.13-2.09-2.08-.56-1.48-1.48-2.58-2.78-3.47l-.69-.7c-.55-.19-.54-.43,0-.69.59-.22.36-.45-.69-.69-.68.68-2.41.17-2.78-.69-1.77-1.63-3.62-3.02-5.56-4.17-2.23-1.9-4.08-2.36-5.56-1.39-.17.6-.4.59-.69,0-.95.51-1.99.7-2.09-.69-1.68.34-3.3.34-4.87,0-.7.96-2.51,1.35-2.78,0l-1.39-.7-.69.7c.27,1.39-2.56,2.56-3.48,1.39-2.47.77-4.79,1.93-6.95,3.48.26,1.08-.54,1.48-1.39.69.18,1.37-.41,1.66-1.39.69-.85.93-1.78,1.86-2.78,2.78.03.89-1.12,1.78-2.09,1.39.12,1.34-.44,1.67-1.39.69l-3.47,3.48c-.21.63-.44.62-.7,0-.3,0-.98-.57-1.39-.69,29.11-25.07,42.71-20.76,69.5,4.17Z"/>
  <path class="cls-190" d="M271.99,187.53c0,.61.69,1.27.7,1.39,2.59.73-.18,7.21-2.09,7.64-3-.03-6.03.02-9.03,0v-9.73c5.26-5.62,5.09-15.41,10.43-20.85v21.54Z"/>
  <path class="cls-64" d="M125.35,130.54c2.05-.63,3.65.83,1.39,2.09.19.28.33.51.27.57-15.51,17.43-33.58,34.4-57.26,41.13h-.69c-1.17-.23-2.32-.32-3.48-.69l.13-1.6c22.03-7.48,40.36-21.92,55.77-40.15.86-1.01,1.86-1.74,3.18-2.03.65-.18.88.05.69.69Z"/>
  <path class="cls-46" d="M306.05,180.58c.24,1.03.12,1.65.69,2.78-.36,1.86-3.12,10.64-5.05,10.64-.4,0-.8-.09-1.2-.22-3.83-3.33-5.12-6.75-5.56-11.81,2.02-7.26,4.86-14.15,8.51-20.69l1.91-.16c.12,6.43.35,12.91.7,19.46Z"/>
  <path class="cls-181" d="M128.82,70.77c-.68,1.29-2.44.62-3.5.39-2.39-.53-14.82-4.17-15.87-2.38-.52.88.62,3.35-.78,4.08-.22-.84-.45-1.77-.69-2.78-1.14.06-1.31-.65-.5-2.14l-.19-2.03c-1.74.22-1.97-.71-.69-2.78-1.94-1.31-2.23-2.69-1.39-4.17-.59-.2-.58-.43,0-.69,1.84-3.3,3.53-1.75,6.12-1.58,1.32.09,2.55,1.02,2.22-1.2,5.31,4.94,10.43,9.9,15.29,15.29Z"/>
  <path class="cls-7" d="M371.38,170.85c2.5,1.93,3.27,1.66,4.86,4.86-.19,2.67-1.15,5.48-2.89,8.45-1.16,4.47-2.98,8.37-5.45,11.71-2.28,1.02-2.44.97-4.87,1.39l-7.07.17c-.82-.76.18-6.76,2.21-6.43l2.08-.69c3.18-.92,6.1-2.12,6.3-5.92.07-1.41-.8-2.9-.74-3.81-2.21-2.01,2.4-11.67,5.56-9.73Z"/>
  <path class="cls-150" d="M145.5,113.17c-.26,1.11-.97,2.96-1.39,4.17-3.72,7.28-8.62,13.93-13.9,20.15-9.49,12.13-30.91,33.31-45.98,37.07-3.47.86-8.34,2.08-11.7.46.23-.43.46-.43.69,0,1.01-.61,3.09-1.33,3.48,0,28.99-11.13,52.5-35.81,67.5-62.81l1.31-.43c.29.38.29.84,0,1.39Z"/>
  <path class="cls-26" d="M305.35,147.22c.45,4.54.86,9.59,0,13.9-5.05,5.73-5.47,15.1-10.42,20.85-.02-.23.02-.46,0-.69v-15.99c1.99-5.64,3.95-11.31,5.89-17l1.76-1.07c1.24.04,1.98-.88,2.78,0Z"/>
  <path class="cls-22" d="M362.34,146.53l1.18,1.03c-1.3,2.62-2.16,4.83-2.57,6.61-2.54,1.44-3.61,5.7-2.09,8.34-1.84,3.01-3.16,6.33-3.96,9.95l-1.6.48c-2.45-1.88-3.54-2.79-4.86-5.56.09-6.22,3.82-13.4,6.95-18.76,2.33-1.2,4.32-1.82,6.95-2.08Z"/>
  <path class="cls-59" d="M124.65,129.85c-10.65,13.05-23.26,24.74-37.76,33.48l-21.32,10.31c-1.39-.45-3.2-.94-4.17-2.08l2.78-.69c.31-1.05,2.12-1.66,2.78-.7,13.72-4.66,25.56-12.81,36.84-21.54.32-1.25,2.11-3.3,3.47-3.47,1.43-.95,2.59-2.11,3.48-3.47.19-1.27,1.56-2.38,2.78-2.78l4.17-4.17c-1.11-1.37.6-3.01,2.09-2.78-.28-1.23,2.85-4.06,4.17-3.48,1.28-.5,1.72.49.7,1.39Z"/>
  <path class="cls-78" d="M337.32,187.53l.38,1.4c-1.79,2.28-2.86,5.37-3.16,8.33-2.89-.12-5.34-1.38-6.26-4.17-.81-2.48.08-3.34.87-5.73,1.92-5.78,5.08-12.49,7.82-17.89-.2,4.05,1.43,14.84.34,18.07Z"/>
  <path class="cls-76" d="M313.69,188.92c.92.4,1.54,1.01,2.79.7l-2.12,7.61c-1.6.04-3.24.11-4.84.03-4.17-.19-5.89-.75-9.03-3.48,3.47-2.38,2.64-8.25,6.25-10.42,1.79,3.51,3.58,4.1,6.95,5.56Z"/>
  <path class="cls-56" d="M13.45,120.81c1.05-.12,1.31.49.69,1.39,1.5,3.01,3.35,4.86,5.56,5.56.49-.24.95-.01,1.39.69,1.65-1.37,2.99.14,2.78,2.09,1.95-1.32,6.07,1.25,6.26,3.47-2.75,1.52-1.96,7.2-1.39,9.73-7.55-6.61-14.34-14.55-18.76-23.63l2.09-.69c.97-1.13,1.87.15,1.39,1.39Z"/>
  <path class="cls-123" d="M126.74,86.06c3.97-4.06,13.11,7.39,13.2-1.39.33.52.47,1.01.69,1.39-.29,3.39-2.61,12.77-5.74,13.81l-2.8-.38c.01,1.65-.62,2.5-1.88,2.55l-1.37-1.07c.27-5.16-.44-10.13-2.11-14.92Z"/>
  <path class="cls-89" d="M335.24,147.22c-1.25,6.68-4.71,13.19-7.3,19.46-1.58.27-.95-.69-1.04-1.73-.46-5.71.34-11.96,0-17.73.4-.44,6.6.04,8.34,0Z"/>
  <path class="cls-166" d="M367.9,195.87c1.59-5.81,3.95-12.08,6.43-17.55.47-1.05.64-2.15,1.91-2.6,4.46,8.96.13,16.37-8.34,20.15Z"/>
  <path class="cls-144" d="M358.86,162.51c.42.74,4.49,3.47,5.56,4.17.56.89-2.68,9.01-3.06,9.35-.53.48-.88.77-1.81.38-2.13-1.24-3.97-1.72-6.26-3.48.85-2.79,2.03-7.06,3.33-9.53.62-1.19.87-2.01,2.23-.89Z"/>
  <path class="cls-18" d="M371.38,170.85c-2.02-.26-5.5,8.87-5.56,9.73-2.13-1.26-4.12-2.93-6.25-4.17,1.93-2.94,2.06-7.48,4.86-9.73,2.36,1.53,4.28,2.11,6.95,4.17Z"/>
  <path class="cls-5" d="M302.57,147.22c-1.72,5.98-3.85,13.19-7.64,18.07v-18.07c.37-.4,6.07-.04,7.64,0Z"/>
  <path class="cls-72" d="M283.11,188.92c2.12.88.06,7.49-2.09,7.64-3.45.1-6.97.04-10.43,0,.1-2.78,2.1-4.76,2.09-7.64,3.46-.11,6.97.16,10.42,0Z"/>
  <path class="cls-32" d="M141.33,87.45c-1.07,7.13-4.01,15.26-7.87,21.54-2.36,3.84-3.85,5.69-3.94,0-1.88-1-1.49-6.49.7-6.95.3-2.3,1.23-4.89.7-7.64,1.54-.02.17,2.7.77,3.39.1.12,2.72.74,3.09.72,2.91-.15,4.87-9.84,5.86-12.45.3.5.46.96.7,1.39Z"/>
  <path class="cls-120" d="M283.11,188.92c2.86-.13,5.94-1.26,9.04-.69-.24,8.7-4.17,8.13-11.12,8.34l2.09-7.64Z"/>
  <path class="cls-91" d="M348.44,167.38c-3.6-7.48-.1-15.15,6.95-18.76-1.07,6.49-4.67,12.62-6.95,18.76Z"/>
  <path class="cls-37" d="M142.72,89.54l.18,1.99c-3.05,11.88-8.2,22.8-15.47,32.76,1.07,1.49.16,2.04-1.39,2.09-.3,1.85-.83,2.3-2.09.69-.42,1.29-.96,1.29-1.39,0-1.24-1.68.01-3.77,2.09-3.47.16-2.07,1.24-5.12,2.78-6.26,6.28-7.8,11.15-17.3,14.59-28.5.12.24.58.44.69.69Z"/>
  <path class="cls-98" d="M367.9,146.53c1.67.03,6.55-.48,7.34.65,1.21,1.72-.82,5.56-.39,7.7-2.82-.28-5.47-1.29-8.34-1.39-3.48-.16-.96-6.32,1.39-6.95Z"/>
  <path class="cls-10" d="M146.19,99.96v2.08c-2.94,9.77-8.61,18.73-14.28,27.13l-1.01-2.81c-.54-.2-.53-.43,0-.7,4.84-8.6,9.32-17.71,13.43-27.31l1.16-1.19c.27,1.03.47,1.51.69,2.78Z"/>
  <path class="cls-43" d="M144.81,95.1c-2.85,10.92-7.71,21.11-14.6,30.58-.68,1.56-2.77.14-2.09-1.39,6.6-10.65,10.67-19.9,14.59-31.75.11-.34.38-.64.7-.92.58,1.36.85,1.83,1.39,3.47Z"/>
  <path class="cls-49" d="M253.92,158.34c1.62,6.98-1.11,13.29-6.95,17.38.3-4.81,2.9-11.06,4.98-15.56.47-1.03.37-2.16,1.97-1.81Z"/>
  <path class="cls-198" d="M143.41,91.62c-1.64,12.19-8.9,22.53-15.29,32.66-.2.61-.43.6-.69,0,1.72-5.12,3.06-5.57,5.58-10.06,4.19-7.47,8.43-16.23,9.71-24.69.46.97.47,1.56.7,2.09Z"/>
  <path class="cls-80" d="M142.02,88.84c-2.37,9.09-6.54,20.15-12.35,27.62-.77.99-.77,2.12-2.25.88-1.61-1.6-.14-7.74,2.08-8.34l1.04,2.78c2.66-3.23,3.87-7.08,6.28-10.4l4.5-13.92c.26.47.46.92.69,1.39Z"/>
  <path class="cls-33" d="M338.01,188.23c.37.83.28,1.92,1.39,2.48,1.6.81,4.05-2.13,2.46,2.41-1.05,3.01-4.36,4.26-7.33,4.14-2.93-1.12.62-6.37,1.49-8.61.24-.63,1.26-1.02,1.29-1.12.16.27.6.48.69.7Z"/>
  <path class="cls-85" d="M145.5,97.18c-2.15,6.18-4.79,12.45-7.82,18.24-1.14,2.17-6.42,8.98-6.77,10.26-.2.61-.43.6-.69,0,1.83-5.94,7.05-12.4,9.85-18.29,1.88-3.95,3.16-8.22,4.74-12.29.23.71.5,1.34.69,2.08Z"/>
  <path class="cls-212" d="M360.25,190.31c-.64.18-.91.5-2.08.69l-.63,1.28c-2-.38-3.41,1.28-4.23,4.98-4.84-1.22-7.32-3.82-6.95-9.03,4.69,1.69,8.83,2.58,13.9,2.08Z"/>
  <path class="cls-50" d="M367.9,146.53c-.03,2.47-2.83,4.79-1.39,6.95-1.52-.05-4.29-.03-5.56.69-3.17.64,1.14-5.47,1.39-7.65,1.69-.17,3.8-.03,5.56,0Z"/>
  <path class="cls-131" d="M80.17,161.12c1.36-.81,1.82-.58,1.39.7-6.05,4.23-13.47,7.69-20.85,9.03.61.2.6.43,0,.69-1.03-.28-1.98-1.64-2.78-2.09,3.08.05,5.6-1.8,8.34-2.78,3.93-2.11,7.96-4.12,12.1-6.04l1.8.48Z"/>
  <path class="cls-44" d="M261.56,186.84c.03,3.23-.02,6.5,0,9.73l-.69-48.65c1.15.72.69,2.64.71,3.81.12,11.7-.13,23.42-.01,35.11Z"/>
  <path class="cls-103" d="M358.17,191.01l-1.39,6.25h6.25c-3.89.68-5.64,1.03-9.73,0-1.07-1.28-.46-2-.14-3.24,1.19-4.68,1.49-2.42,5.01-3.02Z"/>
  <path class="cls-44" d="M271.99,187.53c.02-7.17,0-14.37,0-21.54v-18.76,40.31Z"/>
  <path class="cls-46" d="M294.93,165.29c0,5.18-.33,10.89,0,15.99v-34.06,18.07Z"/>
  <path class="cls-76" d="M306.05,180.58c-1.37-6.04-.69-13.12-.7-19.46v-13.9c1.95,2.13-.04,28.6.7,33.36Z"/>
  <path class="cls-25" d="M130.21,137.49l13.9-20.15c-2.58,7.5-8.23,14.77-13.9,20.15Z"/>
  <path class="cls-45" d="M146.89,106.22c-.11.48-.35.71-.7.69-.2.61-.43.6-.69,0-.46-1.21-.23-2.83.69-4.87.02-.69-.01-1.39,0-2.08.43,2.38.77,3.5.7,6.25Z"/>
  <path class="cls-14" d="M73.22,174.33c.61.2.6.43,0,.69-.23,0-.47.02-.69,0-1.76-.13-2.23-.45-3.47-.69h.69c1.4-.53,2.56-.53,3.47,0Z"/>
  <path class="cls-67" d="M145.5,113.17c.09-.41-.09-.97,0-1.39-1.23-1.02-.07-3.5.69-4.87.06-.32.37-.6.7-.69-.06,2.22-.18,5.02-1.39,6.95Z"/>
  <path class="cls-163" d="M64.19,170.85c-.49.1-1.58,1.28-2.78.69-.22-.04-.48.06-.69,0v-.69c1.55-.53,2.7-.53,3.48,0Z"/>
  <path class="cls-48" d="M96.15,45.75v.7c.56,1.92-.06,2.21-1.39.69-1.2,1.26-5.46-1.05-6.95-2.09-2.95-.74-6.08-.72-9.03,0-19.03,5.43-34.46,21.87-47.22,36.86l-1.43.67c.92,1.53.08,1.96-1.39,2.08-.2.61-.43.6-.69,0-3.6,4.16-6.84,8.56-9.73,13.2,1.14.96.05,3.14-1.39,2.78-2.82,6.11-4.06,12.06-2.78,18.76.62.14.6.38,0,.69.89,1.03.48,1.4-.69.69-.21-.44-1.18-.94-1.39-1.39-.16-.35-.63-1.73-.69-2.08-.63-.17-.61-.4,0-.7,0-23.31,23.59-45.74,40.7-59.8,12.92-10.61,27.55-19.82,44.09-11.09Z"/>
  <path class="cls-30" d="M52.37,48.53c-10.85,10.92-21.74,21.81-32.66,32.67-1.11-.3-.85-.71,0-1.39-.07-.45.16-.91.7-1.39.48-1.67,1.41-2.83,2.78-3.48,1.17-1.31,2.28-2.9,3.47-4.17,4.73-5.78,10.24-11.2,15.99-15.99.82-.84,2.31-1.36,2.78-2.78.24,0,.52.05.7,0,1.02-1.26,2.18-2.42,3.47-3.48.42-.28.94-.46,1.39-.69,1.14-.56,1.8-.7,1.39.69Z"/>
  <path class="cls-174" d="M16.93,88.84c-.45,1.82-1.55,4.12-2.78,5.56-.77,3.42-2.16,6.2-4.17,8.34-.82.88-1.01.46-.69-.7-.83-.72-1.26-3.02,0-3.47.66-.92.73-2.62,1.39-3.47.38-1.72,1.08-2.42,2.09-2.09.94-2.47,2.33-4.33,4.17-5.56,1.36-.03.88.56,0,1.39Z"/>
  <path class="cls-115" d="M14.84,94.4c-.88,3.66-2.04,7.37-3.47,11.12.1,2.66-.28,5.69-.7,8.34.12,1.39-.58.89-1.39,0-.08-.43.06-.95,0-1.39-.04-2.42.19-4.74.69-6.95-1.12-.19-.96-2.26,0-2.78,1.28-2.84,2.76-5.57,4.17-8.34.21-.42.44-.41.7,0Z"/>
  <path class="cls-175" d="M42.64,54.79c-5.21,5.32-10.95,10.64-15.99,15.99-1.39-.29.72-1.76,1.04-2.09,3.98-3.98,8.02-8.42,12.15-12.18.86-.78,1.42-1.74,2.79-1.72Z"/>
  <path class="cls-133" d="M18.31,83.28c.5.2.49.43,0,.69-1.89,2.89-3.75,5.9-5.56,9.03-1.02,1.38-1.99,1.96-2.09,2.09-.07-1.44.29-2.81.7-4.17l2.08-3.48c1.27-2.04,2.73-3.68,4.17-5.56,1.05-.73,1.29-.27.69,1.39Z"/>
  <path class="cls-112" d="M9.28,112.47c-.23-1.65-.55-3.18-.7-4.87.13-1.63.59-2.32,1.39-2.08.08,2.11.51,5.4-.69,6.95Z"/>
  <path class="cls-90" d="M9.98,102.74c.14.78-.03,1.9,0,2.78l-1.39,2.08c-.15-1.83.12-3.73,0-5.56.2-.61.43-.6.7,0,.27.14.64.41.69.7Z"/>
  <path class="cls-187" d="M9.28,98.57v3.47h-.7c-.03-.43-1.13-1.49-.74-3.05.2-.78,1.37-.34,1.44-.42Z"/>
  <path class="cls-193" d="M19.7,81.2c.45,1.03-.33,1.95-1.39,2.09l-.69-1.39c.29-.38.4-1.02.69-1.39.45-.52.91-.75,1.39-.69-.11.37.07.95,0,1.39Z"/>
  <path class="cls-148" d="M23.18,74.94c-.96,1.08-1.84,2.35-2.78,3.48.57-1.49-.08-3.34,2.78-3.48Z"/>
  <path class="cls-29" d="M10.67,113.86c.2-.61.43-.6.7,0,.43.73.43,1.66,0,2.78-.77.34-1.47-.36-2.09-2.08-.04-.22.04-.47,0-.7h1.39Z"/>
  <path class="cls-58" d="M11.37,90.93c.76-2.51,1.25-2.14,2.08-3.48-.18,1.4-.69,2.88-2.08,3.48Z"/>
  <path class="cls-6" d="M11.37,116.64c.03.23-.04.47,0,.7-1.72.43-1.81-1.36-2.09-2.78,1.02.24,1.3,2.02,2.09,2.08Z"/>
  <path class="cls-65" d="M20.4,78.42c-.18.47-.57.94-.7,1.39l-1.39.69c1.1-1.39,1.8-1.74,2.09-2.08Z"/>
  <path class="cls-69" d="M260.87,43.31c13.86-9.63,4.95-20.12-9.04-21.19-2.34-.18-5.27-.1-7.64,0-4.21.18-8.34.94-12.51,1.39v48.65c8.18.89,16.18,1.92,24.36.38,16.82-3.15,22.2-22.48,4.83-29.23ZM242.8,29.07c19.62-3.09,17.53,15.12,0,14.6v-14.6ZM242.8,65.91v-17.38c21.97-5.52,21.47,21.4,0,17.38Z"/>
  <path class="cls-69" d="M229.21,106.88c-1.77,11.13,3.22,20.98,14.29,24,7.52,2.05,19.29,1.86,18.05-8.68-8.61,5.27-22.45,2.02-22.24-9.73l23.63-2.79c2.73-23.19-30.4-23.78-33.74-2.81ZM238.63,106.91c.2-10.28,13.36-13.21,14.6-2.08l-14.6,2.08Z"/>
  <path class="cls-69" d="M332.13,112.49c7.1-1.44,14.71-1.55,21.86-2.81,3.44-20.97-25.97-24.31-32.5-6.44-4.06,11.1.77,23.97,12.49,27.51,7.4,2.23,20.21,2.13,18.62-8.55-6.7,4.35-17.79,3.13-21.18-4.87-.84-1.99-2.11-4.26.71-4.84ZM330.37,106.91c-.87-6.39,5.94-11.94,11.47-7.65,1.19.93,3.39,4.36,2.39,5.54-.45.54-11.97,1.64-13.86,2.11Z"/>
  <path class="cls-69" d="M297.89,34.1c-29.23-4.97-30.9,36.3-6.01,39.37,6.81.84,16.24-.14,15.56-8.95-9.77,4.09-21.3,2.29-22.94-9.73l24.25-3.56c.92-7.24-3.13-15.82-10.86-17.13ZM298.35,46.01c-.54,1.62-11.51,2.31-13.85,2.52-.41-5.92,5.51-11.28,11.07-7.93,1.57.95,3.38,3.6,2.78,5.41Z"/>
  <path class="cls-102" d="M76.69,130.54c2.14.43,4.35.36,6.63-.19l.32.88c-.87.81-2.03,1.74-3.48,2.78l1.31,1.31c-.7,6.85-.71,13.78,2.39,20.12,1.19,2.78-.87,5.71-3.7,5.67-4.01,2.85-9.48,3.98-13.9,5.56.69-1.32,4.53-1.93,4.7-3.1.1-.64-3.47-8.66-3.97-10.49-1.36-5.02-1.8-10.14-2.12-15.28-.08-1.33.74-2.79-1.39-2.4-.12-.52-.22-1.27.14-1.49.48-.28,9.71-3.89,10.25-4.01l1.43.64c.1-.85.33-1.54.69-2.09,2.02-1.13,2.79,1.21.69,2.09Z"/>
  <path class="cls-99" d="M73.91,114.56c-.56,1.88-.66,4.82,0,1.39,2.35-1.22,3.11,2.17.69,2.78-.35.79-.72,2.43,0,1.39,2.35-1.22,3.11,2.17.7,2.78-.35.79-.72,2.43,0,1.39,2.35-1.22,3.11,2.17.69,2.78l-.69,3.47c-1.06,1.3-9.75,4.31-11.82,4.87-3.28.88-7.08,1.64-10.43,2.08-2.15.28-4.74-.22-6.95,0h-3.48c.59-1.24,1.98-2.17,4.17-2.78.67-1.05,1.44-1.07,2.08,0,2.02.56,4.24.64,6.26,0-.61-.2-.6-.43,0-.69.5-1.33,1.8-2.11,3.88-2.35,2.37-1.55,4.32-1.93,5.85-1.12,1.92-.02,3.95-2.31,4.17-4.17-.94-1.7.1-4.78,2.08-4.87-.36-1.2-.83-2.81.7-2.08-.06-1.59.17-3.45.69-5.56.2-.61.43-.6.69,0,1.08-1.07,1.48-.67.7.7Z"/>
  <path class="cls-193" d="M126.04,86.76c1.24.31,1.37,1.28,0,1.39.83,9.1.33,20.03-4.17,27.8-.42,3.59-2.27,6.84-5.56,9.73-2.59,3.6-8.43,5.09-12.97,4.86l-3.02.7c-2.5,1.47-3.81-2.34-2.09-4.17-1.9.08-2.51-2.07-.55-2.46l-.14-1.71c-1.03-.3-1.04-1.75-.7-2.78l-.87-.4c-3.81,7.73-10.51,12.38-19.28,10.82-.2-.4.08-1.58-.69-2.09-.5-.4-.32-.86,0-1.39-.02-.92.35-2.3-.69-2.78-.51-.4-.34-.87,0-1.39-.03-.91.35-2.3-.7-2.78-.51-.4-.34-.87,0-1.39-.03-.91.35-2.3-.69-2.78-.5-.41-.32-.86,0-1.39-.11-.4-.23-.67-.7-.7-.26-1.31-.49-2.7-.69-4.17,0-1.45-.24-2.84-.69-4.17-.68-1.06-.45-2.91,0-4.17l-1.65-1.87-.44-9.25c-.39,0-.63-.46-.69-1.39-.54-1.55-.54-2.94,0-4.17-2.59-.57-1.18-4.27.6-2.44,3.39-.18,6.67-.07,9.83.35.84,11.19,2.46,22.31,4.86,33.36.31-.35.54-.11.69.69.31.18.29.42,0,.7l1.36.99c-1.22.41-1.44,1.47-.67,3.18.52.05,1.22.28,2.09.69.17-.59.41-.58.7,0l.28-1.57c2.92-2.21,3.96-5.8,4.89-9.15.54-1.94,1.18-4.36,1.08-5.96-.34-.17-.32-.41,0-.7-1.58-.24-1.94-.7-.38-.99l-.31-2.49c-.32-.06-.55-.52-.69-1.39-.48-1.24-.84-2.87-.69-4.17-.51-1.21-.74-2.6-.69-4.17l-.7-4.17c-.59-1.36-.51-2.78,0-4.17,2.65-1.55,7.21-1.26,10.43-.69.7,9.95,2.07,19.98,4.11,30.11l-.64,1.16c.65.46.88,1.39.7,2.78,1,.41,1,.97,0,1.39.69,1.41,1.38,2.8,2.09,4.17.13-.61.36-.58.69,0h2.09l.4-1.66c2.7-2.52,4.37-5.76,5.01-9.75l1.54-.41c-.4-1.07-.71-2.53,0-3.48-1.36-1.21-1.1-1.42.7-1.39-.02-1.69.21-3.31.69-4.87-1.7-.26-1.9-2.29-.28-2.85l-.41-4.1c-.36-.34-.36-.81,0-1.39-1.68.39-1.92-.08-.7-1.39-.63-.26-1.09-.72-1.39-1.39-.6-.22-.6-.45,0-.69-1.17-.26-2.32-.49-3.48-.69-2.09-.52.02-5.89,2.09-5.56,1.46.47,6.76-2.63,9.37.7.2.25,1.71,3.28,1.75,3.47Z"/>
  <path class="cls-183" d="M130.21,102.05c-.28,2.14-.3,4.89-.7,6.95-.48,2.53-1.27,5.94-2.08,8.34-.58,1.71-1.91,4.65-2.78,6.26-1.03,1.01-3.28-.72-3.48-2.09-1.21-1.4.7-4.55,2.09-5.56l-.36-.91c2.93-8.6,4.24-17.84,3.14-26.89.01-.43.08-1.02,0-1.39.21-.25.47-.46.7-.69,4.13,4.44,3.56,10.29,3.47,15.98Z"/>
  <path class="cls-206" d="M108.66,72.86c.07,2.84.23,6.26,0,9.03l1.28.94c.02,1.72-1.44,7.85-2.67,8.79.96.85.53,1.14-.69.69l-1.29-.41c.47-2.09-.51-6.65-2.19-5.15-1.71.16-1.42-3.03-.69-4.17-.59-.21-.59-.44,0-.69l-1.39-.7c-2.45-2.44,2.93-7.21,5.57-8.46-.3-1.57.16-2.45,1.38-2.66,1.04.48.67,1.87.69,2.78Z"/>
  <path class="cls-123" d="M114.92,82.59l-2.09,5.56c1.15.3,2.31.54,3.48.69.06.03-.04.46,0,.69,1.08.14.93,1.67,0,2.09-3.53,1.42-6.54,1.42-9.04,0-.64-3.22,1.15-6.87,1.39-9.73l.68.69c-.4-1.93,2.37-1.68,3.85-1.37s1.61,1.34,1.72,1.38Z"/>
  <rect class="cls-122" x="117.01" y="80.51" width="4.16" height=".68"/>
  <path class="cls-83" d="M29.44,130.54c.2-.59.43-.58.69,0,1.62-.96,5.7-1.46,5.56.69-.59.74-.35,1.66.69,2.78,1.7.96,1.15,1.77-.69,1.39-1.77-.5-3.56-.58-5.56-1.39-2.25-.91-4.16-2.36-6.26-3.47-1.27-1.8,3-5.93,4.86-4.87.21,1.6.44,3.22.7,4.87Z"/>
  <path class="cls-119" d="M37.77,134.02l5.56.69c1.12-1.06,2.33-1.02,3.48,0,.08,1.79-2.79,2.77-4.17,2.78-2.36.02-4.98-1.53-6.95-2.08l.69-1.39c.39-1.32,1-1.33,1.39,0Z"/>
  <path class="cls-145" d="M89.9,42.28c.65-.88,1.58-.42,2.78,1.39.85.31,1.88.48,2.78.69.53.05.76.28.69.69-.07.21.05.48,0,.69-17.23-6.39-28.88-.39-42.03,10.44-12.4,10.22-37.89,35.05-41.18,50.56-.68,1.25-.62,9.96-1.58,9.89-.1-.86-.01-1.89,0-2.78-.73-2.52-.32-5.93.69-8.34.85-9.66,7.46-17.87,13.74-24.94,6.13-6.89,14.51-15.04,21.44-21.2,11.72-10.43,26.16-22.56,42.67-17.1Z"/>
  <path class="cls-134" d="M80.87,38.11l.19,1.08c-4.81.74-9.51,2-14.09,3.78-12.87,8.64-24.69,18.6-35.44,29.89-.67,1.65-2.5,3.8-4.17,4.17-.28,1.1-.98,2.03-2.09,2.78.3.42.51.78.41.92-1.45,2.07-4.6,5.84-6.38,7.64-.13.13-.51,0-.98-.22-.46.63-.92.86-1.39.69v-1.39c-.14-1.43.79-2.82,2.78-4.17-.31-.62-.08-.97.3-1.4,11.47-13.3,24.4-25.32,37.27-37.24,1.43-.33,2.8-.65,4.13-.97,3.49-2.55,9.53-5.83,13.9-5.56.78-.5,1.93-.74,3.48-.69.65-.07,1.51.37,2.09.69Z"/>
  <path class="cls-159" d="M61.4,43.67c-11.6,6.51-33.09,28.87-41.7,39.62-.46.6-.92.83-1.39.69v-.69c.5-.66.86-1.46,1.39-2.09,10.1-12.03,21.7-21.69,32.66-32.67-.43-.97.53-1.64,1.39-2.08.18-.9.87-1.83,2.09-2.78.42-.25.94-.52,1.39-.69.97.27,2.13.04,3.47-.69-.98-.95-.54-1.37.69-.69h.69c1.14.1.91.8-.69,2.08Z"/>
  <path class="cls-92" d="M85.73,39.5c.43.73-.27.97-2.08.7-.64,1.16-2.71,1.02-3.48,0-1.5-.07-2.89.16-4.17.69-1.58,1.22-5.05,2.51-6.95,2.08-.91.38-1.6.38-2.09,0,1.9-1.8,5.08-2.66,7.61-3.16,3.8-.75,3.79.67,6.29-1.7.07-.06.45.01.69,0,.98-1.48,4.15-.4,4.17,1.39Z"/>
  <path class="cls-196" d="M71.13,37.41c.91-.08,1.87,0,2.78,0,.76.02,1.22.25,1.39.69-3.45.83-10.76,3.8-13.9,5.56l.69-2.08c2.77-1.2,5.32-2.59,7.65-4.17.41-.53.9-.47,1.39,0Z"/>
  <path class="cls-128" d="M69.74,37.41c.94,2.89-5.24,3.31-7.65,4.17h-.69c-.65-1.58,2.55-2.45,4.17-2.78.91-.43,2.59-1.22,3.48-1.39.19-.4.42-.38.69,0Z"/>
  <path class="cls-191" d="M99.63,49.92c.7.68.56-.17,2.09,2.08.64,1.27.49,1.59-.69.69-2.68-1.14-4.53-2.53-5.56-4.17-1.52-.35-1.75-.81-.7-1.39.68.05,1.23-.67,1.39-.69.22-.28.45-.28.69,0,1.3.85,2.25,2.01,2.78,3.47Z"/>
  <path class="cls-109" d="M65.57,38.8c-1.13.53-3.04,1.99-4.17,2.78-.25.17-.44.51-.69.69-1.26.79-1.96.79-2.09,0-.12-1.83,5.41-4.27,6.95-3.48Z"/>
  <path class="cls-92" d="M92.68,43.67c-1.19-.43-2.02-1.11-2.78-1.39-1.32-.17-2.25-.64-2.78-1.39-1.83-.51-1.74-.57,0-1.39,2.2.14,5.29,1.76,5.56,4.17Z"/>
  <path class="cls-114" d="M87.12,39.5c-.05.99-1,.84-1.39,0-1.31-.72-2.58-1.49-4.17-1.39-.42-2.73,4.94-1.39,5.56,1.39Z"/>
  <path class="cls-114" d="M80.86,36.03c.16,1.21-1.58.65-2.42.69-2.19.09-4.42-.06-6.61,0-.16-1.21,1.58-.65,2.42-.69,2.19-.09,4.42.06,6.61,0Z"/>
  <path class="cls-108" d="M49.59,48.53c.53,1.01-2.79,3.28-3.47,3.48.05-2.57,2.19-2.63,3.47-3.48Z"/>
  <path class="cls-124" d="M99.63,49.92c-1.46-1.42-2.18-2.87-2.78-3.47,1.8.89,2.55.84,2.78,3.47Z"/>
  <path class="cls-193" d="M60.71,42.28c-1.45,1.06-3.67,3.84-3.47.69.46-.18.96-.59,1.39-.69.58-.14,1.43.09,2.09,0Z"/>
  <path class="cls-193" d="M53.76,46.45c-.09.12.28.42-1.39,2.08l-1.39-.69c.58-.3,1.19-1.27,2.09-1.39.2-.61.43-.6.7,0Z"/>
  <path class="cls-132" d="M103.8,56.18c-.2.61-.43.6-.7,0-.82-.28-1.44-.78-.69-1.39-1.69-.71-2.16-1.41-1.39-2.08.3.03.82-.28.69-.69,1.23,1.82,1.28,2.51,2.09,4.17Z"/>
  <path class="cls-143" d="M78.78,37.41c-.46.05-2.89.55-3.48.69l-1.39-.69h4.87Z"/>
  <path class="cls-199" d="M55.85,43.67c.29,1.49-1.1,1.49-2.09,2.78h-.7c.04-1.97,1.52-2.03,2.78-2.78Z"/>
  <path class="cls-184" d="M105.19,58.26v.69c1.16,3.32-4.13.65-1.39-1.39-.64.18-.87-.06-.7-.69v-.69h.7c.26.54,1.31,1.18,1.39,2.08Z"/>
  <path class="cls-219" d="M95.46,44.36c.39.09.94-.07,1.39,0,.21.55-.65.57-.69.69l-.69-.69Z"/>
  <path class="cls-187" d="M71.13,37.41c-.46.04-.94-.06-1.39,0-.43-.21-.42-.44,0-.7.59-.04,1.43-.09,1.39.7Z"/>
  <path class="cls-114" d="M69.74,37.41c-.23.03-.47-.04-.69,0-.08-.51.22-.67.69-.7v.7Z"/>
  <path class="cls-53" d="M96.85,46.45s-.51-.03-.69,0v-.7c.25.09.46.58.69.7Z"/>
  <path class="cls-19" d="M128.12,132.63c-.1,2.08-2.32,4.56-4.17,5.56-4.16,5.43-9.74,10.99-15.01,15.59-2.1,1.83-9.02,7.8-11.16,8.4-.26.07-.59-.11-.93-.36l-2.78,2.08c-3.98,3.61-10.07,7.31-15.29,8.34l-3.48,1.39c.45,1.09-1.22,1.2-2.09.69-1.12.15-2.34-.1-3.47,0,14.84-5.6,28.52-14.08,40.32-24.66,3.01-2.7,14.95-16.35,16.67-17.04.28-1.86.87-1.78,1.39,0Z"/>
  <path class="cls-100" d="M128.12,129.85c.22-1.64.85-1.53,1.39,0,1.2.89-.02,2.68-1.39,2.78-.42.08-1.08-.13-1.39,0,.23-1.41-.94-1.56-1.39-2.09-.84-1.08-.54-1.44.69-.69,0-1.67,1.18-1.1,2.09,0Z"/>
  <path class="cls-224" d="M126.04,126.37c.92,1.82.92,2.98,0,3.47-.33.06-.61.36-.69.69-.21-.24-.51-.42-.69-.69-.22-.32-.6-1.04-.7-1.39-1.35-.32-1.29-.93,0-1.39.62-.14,1.27-.68,2.09-.69Z"/>
  <path class="cls-222" d="M103.8,57.57c.4.51.57,1.43.75,2.07.29-.11.53-.67.64-.68.33-.03.54.02.68.36.39,1.18.38,2.7.71,3.81v.7c-1.01.4-1.67.44-2,.14-6.09,7.44-12.42,14.61-19,21.53.21,1.54-.35,4.18-1.94,4.05-1.91.04-1.87-1.84-.7-2.78-1.19-.69-1.89-.23-2.08,1.39-1.72-.6-1.45-3.49-.7-4.86l.28-1.67c7.2-6.78,14.41-14.81,19.82-23.12,1.11-1.23,2.02-2.16,3.53-.92Z"/>
  <path class="cls-15" d="M107.97,70.08c.13,5.89-.17,2.91-2.45,4.82-1.34,1.12-4.29,4.5-4.5,6.3-1.35.46-3.57.58-4.87,0l-1.4-1.09c3.96-5.09,8.13-9.83,12.52-14.2.26,1.51.65,2.1.7,4.17Z"/>
  <path class="cls-88" d="M107.27,65.91c.17,1.66.34,1.85-.86,3.02-2.99,2.93-6.27,5.86-8.9,9.12-.84,1.03-1.63,1.57-1.36,3.15-.69.65-3.11.53-4.17,0l-.12-2.08c4.79-5.02,9.18-10.33,13.18-15.92l1.54.63v-.7c.35,1.16.47,1.46.69,2.78Z"/>
  <path class="cls-189" d="M146.19,106.91c-.3,1.57-.37,3.28-.69,4.87-3.96,5.3-6.77,11.48-10.56,16.9-10.47,14.97-28.28,31.59-44.15,40.64-4.42,2.53-9.04,5.24-14.1,5.71l1.01-1.38c14.02-6.42,26.94-15.61,37.91-25.72,1.79-.94,3.21-2.4,4.17-4.17.7-1.58,2.57-3.6,4.17-4.17,5.89-7.41,11.24-15.25,16.07-23.51l4.46-8.87,1.02-.28h.69Z"/>
  <path class="cls-95" d="M112.14,134.02c.21-1.33.76-1.25,1.39,0,4.2-1,4.21-.23,1.39,2.78.72.75.31,1.1-.69.69-3.74,4.03-7.68,7.74-11.82,11.12-9.82,10.11-22.61,16.66-35.44,21.54-.8.21-2.06.55-2.78.7h-3.48c7.23-2.57,14.2-5.21,20.85-9.03,1.62-2.93,5.54-6.67,9.03-6.26,2.85-3.3,6.08-6.21,9.71-8.73,3.42-3.11,4.01-4.85,4.8-9.41-4.6-.22-5.45-5.19-.61-2.71,2.04-1.24,5.19-1.1,7.65-.69Z"/>
  <path class="cls-163" d="M103.8,148.61c-10.82,9.35-22.83,17.85-36.84,21.54l18.43-9.03c5.78-3.87,11.83-7.85,17.02-12.52.81-.57,1.27-.57,1.39,0Z"/>
  <path class="cls-107" d="M114.23,137.49c1.05.41.22.96-.7,1.39-.87.91-1.88,1.88-2.78,2.78-.83,1.34-1.99,2.5-3.48,3.47-1.54,1.23-2.36,2.51-3.47,3.47h-1.39c4.35-3.92,6.78-7.42,11.82-11.12Z"/>
  <path class="cls-107" d="M119.78,131.93c-.74.86-1.38,1.89-2.09,2.78-.95,1.54-1.88,2.24-2.78,2.09l1.39-2.77c-1.05.81-2.49-.02-2.78,0,.05-2.18,2.96-3.79,4.87-2.78,1.18-.57,1.76-.76,1.39.69Z"/>
  <path class="cls-163" d="M123.95,127.07c.07.44-.1,1.01,0,1.39-1.13,1.01-3.28,2.44-4.17,3.48l-1.39-.69c-.61-1.91,2.27-4.74,4.17-4.17.44-.06.98.09,1.39,0Z"/>
  <path class="cls-163" d="M113.53,138.88c.29-.3.42-1,.7-1.39.25-.18.43-.52.69-.69.97-.65,1.79-1.46,2.78-2.09-.95,1.2-1.43,4.14-4.17,4.17Z"/>
  <path class="cls-163" d="M107.27,145.14c.67-1.65,2.41-2.41,3.48-3.47.02,2.62-2.51,2.7-3.48,3.47Z"/>
  <path class="cls-214" d="M28.74,115.25c.12,4.79-2.26,8.44-7.14,10.93.37.89.32,1.57-.5,2.27-.42-.25-.93-.53-1.39-.69-1.16.44-2.78-.98-2.09-2.09-.81-1.23-1.04-2.16-.69-2.78-.3-.62-.12-1.2.1-1.8l9.42-7.91c.05-2.19.82-3.35,2.3-3.5.52,1.84.52,3.71,0,5.56Z"/>
  <path class="cls-68" d="M28.74,120.81c.55,1.53.53,3.33,0,4.86l-4.86,4.87c-1.38-.74-2.12-1.7-2.78-2.09l-1.38-2.43c1.07-1.22,7.8-6.06,8.18-6.74.58-1.06-.52-3.26.84-4.03.54,1.81.53,3.75,0,5.56Z"/>
  <path class="cls-129" d="M15.53,123.59c1-.57,2.05,1.06,2.09,2.08.62.64.93,1.78,2.09,2.09-.07-.02-.46.82-1.33.39-2.74-1.35-3.21-4.24-4.23-5.95.93-.72,1.3.39,1.39,1.39Z"/>
  <path class="cls-55" d="M15.53,121.51c.28.28.51.74.69,1.39,1.03.9.58,1.33-.69.7-.42-.5-.91-.95-1.39-1.39-.26-.43-.47-.93-.69-1.39.13-.28.65-.54.69-.69.68-.81,1.14-.34,1.39,1.39Z"/>
  <path class="cls-97" d="M124.65,123.59c-.53.98-1.46,2.61-2.09,3.47-1.22,1.69-2.51,2.92-4.17,4.17-1.49,1.13-3.17,2-4.87,2.78-.46.02-.93-.03-1.39,0l-2.11-.28c-3.36.78-5.67.41-6.92-1.11,1.53-.4,3.18-.63,4.94-.69-.97.03-.76-.2.62-.7l-.39-.9c3.15-1.07,6.22-2.47,8.73-4.66.72-1.71,2.26-4.56,4.17-4.17.03-.04.42.71.99.06.94-1.09,2.03-5.57,2.83-5.6,3.21-.15-2.43,6.74-.35,7.63Z"/>
  <path class="cls-61" d="M130.21,125.68c.41.86.37,2.21-.7,2.09-.81,1.22-2.45-.13-2.78-1.39-.17.59-.4.57-.7,0,.26-1.83,1.21-1.56,1.39-2.09h.69l2.09,1.39Z"/>
  <path class="cls-165" d="M145.5,106.91c-3.01,9.65-14.66,25.2-21.55,32.67-.66.1-.66-.36,0-1.39,1.55-1.73,2.86-3.64,4.17-5.56.69-1.01.98-2.16,1.39-2.78.38-.82.84-1.97,1.39-3.47l1.38,2.08,13.91-26.41c-.05,1.84-.14,3.09-.69,4.87Z"/>
  <path class="cls-63" d="M130.9,126.37c-.17.88.26,2.14.02,3s-1.37.41-1.41.48c-1.02-.1-1.51-2.07,0-2.08.14-.52.48-1.38.7-2.09h.69c-.06.21.05.46,0,.7Z"/>
  <path class="cls-105" d="M91.99,132.63c2.4-1.18,3.49-.74,3.28,1.32-2.3,6.17-2.06,11.09-.76,17.46-.92,1.71-2.43,3-3.91,4.16-2.95,2.09-5.9,4.45-9.03,6.26l-1.39-.7c5.05-3.59,1.55-5.47.46-10.54-1.49-6.88-.85-10.06-.46-16.57.39-.4,1.29-.35,2.68.16l5.66-.16c.31-1.96,2.1-3.09,3.48-1.39Z"/>
  <path class="cls-172" d="M123.95,139.58c-1.19,1.29-2.84,2.8-4.17,4.17-.94,1.77-2.38,3.24-4.17,4.17-1.36,1.32-2.64,3.11-4.16,4.53-10.14,9.46-22.46,16.42-34.76,22.58-1.07.1-2.38.05-3.48,0v-.69c.9-.12,1.44-.53,2.09-.69l3.48-1.39c5.17-2.32,10.32-5.56,15.29-8.34l2.78-2.08c8.2-4.54,20.73-16.52,27.11-23.63v1.39Z"/>
  <path class="cls-193" d="M39.16,81.89c4.05-.71,8.43-.76,12.51,0,.17-1.11,1.86-1.21,2.09,0,1.67-1.24,3.52-.93,3.48,1.39,1.84-.59,3.07.77,4.17,2.08.88-.97,1.2-.53.69.69.88.31,1.75,1.08,1.39,2.08,1.89-.56,1.93.05.7,1.39.76.58,1.03,1.22,0,1.39-1.6,1.73-.93-.23-.67-.11,1.03.48-.59,7.9-2.81,7.06l.03.98c-1.89,1.04-3.06,2.33-3.51,3.88,1.7-.84,5.06-.63,5.56,1.39.61.19.6.42,0,.69,1.91.6,3.52,2.29,4.17,4.17,2.02-.26,2.38.28,1.39,2.08-.13,5.42-1.75,10.06-4.86,13.9-.15.63-.39.61-.69,0-.7,1.52-2.55,2.33-4.17,2.09.28,1.03-1.88,1.73-2.78,1.39-1.51,1.6-5.2,1.87-7.3,1.39-2.49,1.2-8.49,1.11-11.12,0l-.61.67c-2.36-.68-4.38-1.23-6.69.03-.25-.03-.55.07-.69,0-.63-3.07-.57-6.78,0-9.73-.54-5.08-.53-10.21,0-15.29-.42-6.47-.42-12.96,0-19.46-1.29.07-1.22-.47-.7-1.39-.27-1.33,1.12-1.66,1.39-2.08,1.14-1.17,1.84-1.17,2.09,0,1.25-.46,2.64-.69,4.17-.69.65-.72,2.21-.8,2.78,0Z"/>
  <path class="cls-71" d="M78.78,45.06c2.95-.72,6.09-.74,9.03,0,2.05.26,4.83,1.92,6.95,2.09l.7,1.39c.04,1.32-1.98.71-2.78,0-.61-.2-.6-.43,0-.69-14.32-4.1-26.2,3.81-36.83,12.42-7.23,5.85-13.77,12.76-20.08,19.58l-2.86,1.36c.45.29.21.52-.69.7.61.2.6.43,0,.69-.69,0-1.39,0-2.09,0,5.84-9.1,30.41-31.79,40.53-35.58,2.29-.86,5.7-1.72,8.12-1.95Z"/>
  <path class="cls-113" d="M29.44,86.06l-.7.69-1.19,3.5c-4.35,5.67-8.15,11.79-11.32,18.04,2.3,1.31.5,4.39-.69,6.26l1.04,1.07c-.58,1.93-.93,3.89-1.04,5.88-.32-.49-.99-.91-1.39-1.39.05-.19-.02-.45,0-.69-1.31-6.73,0-12.67,2.78-18.76.52-.92,1.08-2.3,1.39-2.78,2.89-4.64,6.13-9.05,9.73-13.2h.69c.84-.03.63.82.7,1.39Z"/>
  <path class="cls-23" d="M14.14,119.42c-1.99-6.84-.55-12.83,2.78-18.76-.46,3.27-2.32,6.14-2.71,9.46-.36,3.07.14,6.24-.07,9.31Z"/>
  <path class="cls-169" d="M18.31,97.88c1.84-4.93,5.95-9.58,9.73-13.2-2.3,4.77-6.96,8.86-9.73,13.2Z"/>
  <path class="cls-191" d="M87.81,45.06c-2.24-.29-6.72-.22-9.03,0,2.09-1.16,6.8-1.18,9.03,0Z"/>
  <path class="cls-201" d="M16.93,87.45c-1.39,1.83-2.81,3.71-4.17,5.56.95-2.91,3.08-7.38,5.56-9.03.42-.28.95-.43,1.39-.69-.71.89-1.83,2.93-2.78,4.17Z"/>
  <path class="cls-117" d="M14.84,94.4h-.7c.85-1.66,1.51-3.99,2.78-5.56.21-.26,1.04-.42,1.39-.69.77,1.51-1.99,5.58-3.47,6.26Z"/>
  <path class="cls-51" d="M83.65,40.19c1.84-.4,3-.17,3.47.69,1.61.44,2.13,1.15,2.78,1.39l-9.4-.73c-17.85.58-40.89,25.05-52.47,37.89-6.47,7.17-14.23,16.34-15.97,26.08-.2.61-.43.6-.69,0,.68-4,1.72-7.42,3.47-11.12.9-1.89,2.32-4.57,3.47-6.26,1.61-2.36,4.96-5.91,6.95-8.34.66-.89,1.35-1.35,2.09-1.39.73-1.66,2.58-3.79,4.17-4.17,6.85-8.03,14.72-16.03,23.03-22.72,2.68-2.16,5.37-4.3,8.33-6.08,1.93-1.15,3.9-2.21,6.17-2.47,2.42-1.02,4.35-1.62,6.95-2.08,1.28-.53,2.67-.76,4.17-.69,1.13-.05,2.35-.07,3.48,0Z"/>
  <path class="cls-177" d="M11.37,113.86h-.7c-.35-2.99.21-5.48.7-8.34h.69c-.46,2.58-.66,5.7-.69,8.34Z"/>
  <path class="cls-156" d="M96.85,120.12c.04.87-.19,1.34-.69,1.39.14,4.36-6.29,11.63-10.43,9.73-.34.82-1.77.93-2.08,0-1.72-.31-6.23.77-6.95-.69,10.28-.41,15.59-4.91,19.81-13.9,1.46.75.3,3.26.34,3.47Z"/>
  <path class="cls-106" d="M85.73,131.24c1.08.09,2,1.02,2.78,2.78-2.52.43-6,1.68-8.34,0,.02-.33-.91-1.37-.69-2.08,1.76.51,2.84-.33,4.17-.7.57-.16,1.58.17,2.08,0Z"/>
  <path class="cls-110" d="M76,128.46c-.13,1.11.12,1.09-.69,2.09.04-1.11-.43-2.88.69-3.47.01.45.05.95,0,1.39Z"/>
  <path class="cls-93" d="M68.35,111.08c2.61-1.52,4.16,2.12,2.78,4.17-.2,2.06-.31,4.23,0,6.26-.47,2.07-.93,3.11-2.08,4.87-.21,1.86-2.29,4.16-4.17,4.17-3.68,1.64-5.44,2.92-9.73,3.47-.18.47-.42.45-.7,0-3.08.18-5.86-.06-8.34-.69l-4.37-.41c-9.63-.35-.26-2.04,4.35-1.29l3.49-.39c.2-.5.43-.49.69,0,.7.31,2.12.75,2.09,0-.61-.2-.6-.43,0-.69.44-1.03,3-1.64,4.17-1.39.32-1.07,2.31-1.61,3.47-1.39.81-.83,1.74-1.75,2.78-2.78.18-.09.5.09.69,0,3.07-3.9,4.69-8.53,4.86-13.9Z"/>
  <path class="cls-167" d="M71.83,105.52c.46,1.33.69,2.72.69,4.17.55,1.56.55,2.95,0,4.17,0,2.77,0,5.56,0,8.34-1.28.12-.58-1.92-.69-2.78-1.04-.76-1.27-2.15-.7-4.17-.95-3.71-1.54-2.78-2.78-4.17-.84-.94-1.3-1.98-1.39-2.08-.6-.83-.6-1.3,0-1.39,1.68-2.56,3.07-3.26,4.17-2.08.2-.61.43-.6.7,0Z"/>
  <path class="cls-82" d="M46.12,133.32c2.61-.01,6.28-.57,8.34.69-.83.24-1.75.47-2.78.69-.88.6-1.81.33-2.78,0-.69,0-1.39,0-2.08,0-1.16,0-2.32.01-3.48,0-1.48-.2-2.87-.43-4.17-.69l-.2-.98c2.38-.2,4.76-.11,7.15.29Z"/>
  <path class="cls-11" d="M64.88,130.54c1.68-1.08,3.07-2.51,4.17-4.17,1.54.83-1.99,4.15-2.84,4.56s-1.26-.42-1.33-.39Z"/>
  <path class="cls-220" d="M71.83,119.42c-.99.39-.54,1.4-.7,2.08-1.17-1.3-1.17-4.96,0-6.26.39,1.54.5,2.64.7,4.17Z"/>
  <path class="cls-119" d="M51.68,134.71c1.01-.5,2.6-.6,3.48,0-.97,1.16-4.91,1.18-6.26,0,.93,0,1.85,0,2.78,0Z"/>
  <path class="cls-141" d="M73.22,113.86h-.69c0-1.39.05-2.79,0-4.17.28,1.13,1.26,2.4.69,4.17Z"/>
  <path class="cls-42" d="M74.61,120.12c-.04.69.03,1.39,0,2.08h-.68c.06-1.08-.48-2.85.69-3.47.01.46.02.93,0,1.39Z"/>
  <path class="cls-12" d="M54.45,134.02c.23-.02.47.03.7,0v.69h-3.48c.49-1.08,1.88-.62,2.78-.69Z"/>
  <path class="cls-74" d="M73.91,115.95c0,.69.01,1.39,0,2.08h-.68c.06-1.08-.48-2.85.69-3.47.09.33,0,.95,0,1.39Z"/>
  <path class="cls-161" d="M75.31,124.29c-.04.69.03,1.39,0,2.08h-.68c.06-1.08-.48-2.85.69-3.47.01.46.02.93,0,1.39Z"/>
  <path class="cls-210" d="M100.32,131.24c2.06-.6,5.53-1.59,6.95,0-1.19.92-2.81,1.38-4.86,1.39,1.05.57,1.74,1.26,2.09,2.08-.77.04-2.27-.48-2.08.69l4.89,1.09c-1.5,2.28-1.8,6.32-2.88,8.23-1.4,2.47-11.05,8.87-13.83,10.84,4.9-3.92,1.2-7.61,1.34-12.86.1-3.46,1.72-6.69,2.12-10.07-.94.85-1.98-.02-2.08,0-1.04-2.03,4.28-6.63,6.25-5.56.29,1.27.94,3.87,2.09,4.17Z"/>
  <path class="cls-203" d="M97.55,51.31c.88-.21,2.04.26,3.48,1.39.46.5,1.03,1.46,1.39,2.08-1.1.53-2.9.77-2.78-.69-1.31.11-2.17,0-2.59-.33-7.71,8.81-15.48,17.65-23.3,26.5l-2.6.93-.88.32c3.37-.17,6.67-.05,9.92.38.64.15.62.39,0,.69-.2.61-.43.6-.69,0h-10.43c-.03.69.03,1.39,0,2.08-.2.61-.43.6-.7,0-.58,2.59-1.22,5.33-4.17,3.47l-1.39-2.08c-1.12-.67-1.44-2.17-.48-3.12,9.81-10.56,19.53-21.23,29.18-32.01,1.95-.35,3.96-.22,6.05.38Z"/>
  <path class="cls-32" d="M116.31,91.62c-.02-.98.44-1.21,1.39-.69.14.38.6.68.7,1.39-.37,1.05-.77,4.02,0,1.39,1.2,1.54.78,4.85.69,6.95-.48,1.57-.71,3.19-.69,4.87-.09.68-.66,1.21-.7,1.39-.2.61-.43.6-.69,0-.6,1.43-7.23.27-7.65-.21-1.13-1.31-1.43-11.47-1.39-13.68,0-.15.1,2.83-.69,2.78-1.81,1.45-1.93-2.72-.69-3.47.27-.14.51-.64.69-.69,2.85-.9,7.14.3,7.99-2.09.74-.08,0,1.81,1.04,2.09Z"/>
  <path class="cls-80" d="M93.38,99.96c.33,2.79.56,3.25.69,1.39.77,1.7.61,1.72.69,3.47-.37.84-.54,1.48,0,.7,2.32,3.83-1.98,15.86-6.25,16.68-2.1-2.19-2.67-6.27-1.39-9.03.11-2.73-.08-5.54-.56-8.44,3.75-2.12,5.22-4.67,4.4-7.64l1.02-1.3c.2-.61.43-.6.69,0,.23,1.45.56,2.28.69,4.17Z"/>
  <path class="cls-84" d="M107.27,95.79l.69-2.78c.18,1.69,1.03,11.99,1.46,12.45.57.61,6.42.25,7.58,1.45.25,1.07.48,2.23.69,3.48-1.05,4.18-2.63,10.26-6.95,11.81-.61-.2-.6-.43,0-.69-1.36-.03-1.83-1.78-1.41-5.25-.99-4.72-1.65-9.43-2-14.15-.91-1.02-1.62-5.5-.06-6.32Z"/>
  <path class="cls-197" d="M106.58,63.82c-3.41,1.28-3.24,4.15-5.27,6.89-2.44,3.29-6.42,6.67-9.32,10.49l.19.41c2.5-.26,5.92-.17,10.24.29.06.17-.03.45,0,.69-.2.61-.43.6-.69,0-3.71-.24-6.93,0-10.43.69-.23.63-.46.63-.69,0-.27-.55-.55.53-.86,3.23-2.52,1.42-3.59,3.27-3.2,5.55-1.35,3.3-2.31,4.08-2.9,2.34-.9-.61-.9-1.77,0-3.47-1.06-.04-1-1.09,0-1.39,1.84-.94-.09-4.6.06-4.79s1.48-.33,2.05-1.07c4.19-5.45,7.51-8.64,12.15-13.59,2.2-2.34,4.2-5.66,6.59-8.01l2.09,1.75Z"/>
  <path class="cls-185" d="M106.58,92.32c.14,1.07-.51,2.87.69,3.47l3.48,25.72c-.34.69-1.33.87-2.09.69-.23,0-.47.02-.69,0-1.29.07-1.39-1.94,0-2.08.42-1.02.57-2.12,0-.69-1.2,1.44-2.07-.49-.7-1.39-1.13-.21-.95-1.49,0-2.09-.04-1.91-.04-3.77,0-5.56-.32-2.08-.56-2.31-.69-.69-1.67,1.06-2.31-3.09-.69-3.48.37-.87.71-2.66,0-1.39-1.44.61-1.9-.51-.7-1.39-.35-.89-.35-1.59,0-2.08-.32-1.44-.32-2.83,0-4.17-.34-1.33-.57-1.79-.69-1.39-.2.61-.43.6-.69,0-1.29-.42-1.31-1.02,0-1.39-.42-.73-.58-1.44,0-2.08.34-.77.69-2.41,0-1.39-.2.61-.43.6-.7,0-1.37-.51-1.49-3.7,0-4.17-.62-1.84,1.6-1.97,2.45-.71.19.29.88,5.16,1.02,6.27Z"/>
  <path class="cls-47" d="M96.15,121.51c1.06,3.17,1.52,3.63,1.39,1.39.26,1.37.45,3.12.69,4.17l-6.25,5.56c-.98.21-2,1.14-3.48,1.39l-7.64-.7,5.32-1.29-.45-.79c5-1.72,7.71-5.54,10.43-9.73Z"/>
  <path class="cls-218" d="M71.83,101.35c-.24,1.46-.47,2.85-.7,4.17-1.86.46-2.8,3.94-3.46,3.47.02-.55-.37-.99-.71-1.38-1.03.04-2.42-1.74-2.78-2.78l-.38-.63c1.41-.99,2.24-2.17,2.47-3.54-2-.98-.49-3.52,1.39-2.09.87-1.28,1.02-2.93.46-4.96l.93-.6.69-2.78c1.05,3.71,1.6,7.3,2.09,11.12Z"/>
  <path class="cls-176" d="M83.65,94.4c1.7.39,1.78,3.3,1.39,4.86l1.35,2.63c.73,3.63.97,7.39.74,11.27.45,3,.59,6.09,1.39,9.03-.21.04-.48,0-.7,0-1.59-.2-1.65-.76-1.8-2.11,0-.08.34,1.32-.29,1.42-1.18-1.31-.64-2.55-.69-4.17.4-.97.58-1.99,0-.7-.29-.1-.65-.7-.69-.69-1.04-1.15-1.11-2.37,0-3.47.37-.87.71-2.66,0-1.39-1.44,1.37-2.01-2.85-.69-3.48.16-1.42.16-2.81,0-4.17-.82-1.28-1.16-3.42-.7-4.87-.22-1.24-.45-2.63-.69-4.17-.48-.15-.45-.38,0-.69-.48-.15-.45-.38,0-.7.15-1.61.62-2.3,1.39-2.08.17,1.06-.18,2.42,0,3.47Z"/>
  <path class="cls-36" d="M80.17,83.28c.14,2.01.5,3.35.7,4.86v.69c1.61.11,1.93.72.34,1.14l.35,2.34c.51.46.5.95,0,1.39.23,1.08.47,2.24.69,3.47.61.49.4,1.42,0,2.08.79,1.34,1.12,3.36.69,4.87,1.02.66,1.29,2.38.7,3.47.15,1.07-.51,2.87.69,3.48.5.4.31.86,0,1.39,0,1.16,0,2.32,0,3.47-.28.03-1.23.98-1.38.7.01-9.57-3.85-20.3-4.2-29.57-.06-1.55.66-2.96.72-4.48h.69c.48.23.48.46,0,.69Z"/>
  <path class="cls-171" d="M123.26,115.95c-.68,1.08-1.18,1.35-1.39,0,3.18-7.95,3.88-19.33,4.17-27.8,2.69,8.63.24,19.45-2.78,27.8Z"/>
  <path class="cls-81" d="M103.1,86.76c.13,1.34-.03,2.8,0,4.17.23,1.08.47,2.24.7,3.47,0,.46-.01.93,0,1.39.23,1.08.47,2.24.69,3.47.64.07.6.31,0,.7l.69,3.47c.2.43.11,1.07.7,1.39.5.4.31.86,0,1.39.03,1.12-.42,2.89.69,3.48.45.15.42.39,0,.69.61.78,1.12,2.49,0,2.78-.31,1.17-.57,1.87-1.39.69-1.11-8.7-3.75-18.98-4.19-27.49-.07-1.32.39-2.54.72-3.78h.69c.16,1.52.6,3.17.69,4.17Z"/>
  <path class="cls-21" d="M116.31,125.68c.21-.44.44-.43.69,0-.13.12-.01,1.14-1.1,2-1.72,1.35-5.93,2.16-7.24,3.56-.05,1.05-1.19,1.07-1.39,0-2-.32-5.2.45-6.95,0,1.85-2.42,5.75-1.1,8.91-1.87,2.88-.7,4.48-2.77,7.08-3.69Z"/>
  <path class="cls-208" d="M123.26,115.95c-.68,1.87-1.55,3.64-2.09,5.56-1.41,1.5-2.69,2.75-4.17,4.17h-.69c1.48-3.41,4.18-6.27,5.56-9.73h1.39Z"/>
  <path class="cls-1" d="M107.27,118.03c.05.59.02,1.2.7,1.39.31.18.29.42,0,.69v2.08c-.23-.02-1.13.92-1.38.7-.53-1.68-.74-3.09-.7-4.87.25-1.81.86-1.75,1.39,0Z"/>
  <path class="cls-182" d="M97.55,122.9c-.08,1.07.45,2.33-.69,2.08l-.7-3.47c.2-.31.12-1.09.69-1.39.14.73.49,1.67.7,2.78Z"/>
  <path class="cls-1" d="M106.58,114.56c.49.87.43,2.36-.69,2.08-1.11-.49-.58-1.9-.7-2.78l1.39-.69c1.17.2,1.1.86,0,1.39Z"/>
  <path class="cls-195" d="M118.4,93.71c.06,1.38-.04,2.79,0,4.17h-.68c.22-1.7-.72-4.28.69-5.56.06.44-.02.94,0,1.39Z"/>
  <path class="cls-81" d="M107.27,115.95c.06.68-.06,1.4,0,2.09h-1.39c0-.46-.02-.93,0-1.39,0-.11.64-.93.69-2.08,1.04-1.35,1.34.09.69,1.39Z"/>
  <path class="cls-180" d="M85.73,121.51c.15-1.18-.56-3.02.69-2.78-.15,1.66-.25,2.76,1.4,3.47-1.03-.01-1.31.16-2.09-.69Z"/>
  <path class="cls-204" d="M91.29,87.45v.69c-3.5.74-1.72-2.84-.69-4.86.02.03.57.02.69,0,0,1.39-.01,2.78,0,4.17Z"/>
  <path class="cls-200" d="M118.4,105.52c.16-1.52-.62-3.88.69-4.87-.08,2.17-.48,3.29-.69,4.87Z"/>
  <path class="cls-217" d="M85.03,117.34c0-.23,0-.46,0-.7.03-1.15-.03-2.32,0-3.47h.68c-.11,1.27.57,3.34-.69,4.17Z"/>
  <path class="cls-170" d="M116.31,89.54c1.95-.36,1.13.69,1.39,1.39l-.35.69c-.36-.07-.74.09-1.04,0-.07-.67.11-1.45,0-2.09Z"/>
  <path class="cls-52" d="M71.83,105.52h-.7c.1-1.31-.53-3.39.7-4.17.16,1.3-.1,2.82,0,4.17Z"/>
  <path class="cls-151" d="M72.52,109.69c-.44-1.76-.54-2.16-.69-4.17,1.21.49.65,2.82.69,4.17Z"/>
  <path class="cls-149" d="M92.68,95.79h-.69c-1.99-1.09-1.95-3.06,0-4.17.2,1.24.48,2.77.69,4.17Z"/>
  <path class="cls-126" d="M69.74,90.23c.55,1.11-.64,2.33-.69,2.78-1.92.07-2.06-3.8,0-4.17.13.36.51.72.69,1.39Z"/>
  <path class="cls-57" d="M110.75,121.51v.69c-2.18.79-1.59,0-2.09,0l2.09-.69Z"/>
  <path class="cls-179" d="M94.07,101.35c-.15,1.18.56,3.02-.69,2.78-.08-1.38.09-2.79,0-4.17.58.32.5.96.69,1.39Z"/>
  <path class="cls-213" d="M91.99,91.62c-1.69,1.18-2.33-.09-.7-1.39-2.02-.2-1.85-1.49,0-2.08-.02-.23,0-.46,0-.69,1.18.76.67,2.86.7,4.17Z"/>
  <path class="cls-27" d="M69.05,88.84c-3.04-.08-1.77-2.32-.7-4.17h.7c-.04,1.39,0,2.78,0,4.17Z"/>
  <path class="cls-161" d="M94.76,105.52v2.78s-.69,0-.69,0c.06-1.08-.48-2.85.69-3.47.01.23,0,.46,0,.7Z"/>
  <path class="cls-158" d="M117.7,110.39c-1.13-.59-.65-2.36-.69-3.48h.69c-.18,1.04.23,2.54,0,3.48Z"/>
  <path class="cls-32" d="M116.31,88.84c-.58-.25-2.28.22-3.12-.01l-.36-.68,3.06.07.42.62Z"/>
  <path class="cls-127" d="M96.15,81.2c1.54,0,3.41-.18,4.87,0,.71.09,1.07-.21,1.39.7-3.35-.1-6.74.14-10.09,0-1.74-.07-1.11.32-.33-.7h4.17Z"/>
  <path class="cls-188" d="M55.85,128.46c1.12-.41,1.3-.39.69.7-1.53.5-1.92,1.11-4.17,1.39-1.25.21-2.64.44-4.17.69-3.52.14-7,.45-10.42.9l-2.09-.9c-1.2-1.39-3.82-.47-5.56-.69,1.97-2.87,5.54-.69,7.3-.69h11.12c.73,0,6.29-1.08,7.3-1.39Z"/>
  <path class="cls-66" d="M35.69,131.24c4.16-.07,8.35,0,12.51,0,.53-.31,1.06-.56,1.39,0-3.48,1.59-8.07.27-11.81.7l8.34,1.38c-2.18.01-5.35-.57-6.95.69-.21.41-.67.41-1.39,0-.46-.04-.94.05-1.39,0-4.03-.48-5.8-2.69-.69-2.78Z"/>
  <path class="cls-130" d="M29.44,130.54c-.2-.1-.56.09-.62-.4-.21-1.48-.03-2.98-.07-4.46-.05-1.62.02-3.25,0-4.86.2-.61.43-.6.7,0v9.73Z"/>
  <path class="cls-12" d="M39.16,134.02c1.32.06,3.4-.5,4.17.69-1.74-.02-4.41.54-5.56-.69.46.04.93-.02,1.39,0Z"/>
  <path class="cls-54" d="M66.97,42.97c.63-.11,1.42.08,2.09,0-13.26,5.59-27.04,21.24-37.53,31.28-.72.14-.72-.32,0-1.39,6.21-6.68,27.42-28.46,35.44-29.89Z"/>
  <path class="cls-115" d="M31.52,74.25c-1.49,1.43-2.21,2.74-4.17,4.17-.56.03-.56-.43,0-1.39,1.46-1.7,2.85-2.75,4.17-4.17v1.39Z"/>
  <path class="cls-117" d="M27.35,78.42c-.67.49-1.4.92-2.09,1.39.62-.75,1.11-1.64,2.09-2.78v1.39Z"/>
  <path class="cls-54" d="M87.12,39.5c.09.4-.06.95,0,1.39-.29-.08-3.3-.68-3.47-.69.86.36,1.76-.64,2.08-.7.39-.07.96-.03,1.39,0Z"/>
  <path class="cls-54" d="M80.17,40.19c-.32.01-3.44.56-4.17.69.78-1.23,2.86-.59,4.17-.69Z"/>
  <path class="cls-136" d="M92.68,48.53c.85.06,2.12-.18,2.78,0,.99.27,4.65,3.17,5.56,4.17-1.48-.14-2.26-.91-3.48-1.39-2.44-.52-4.83-.69-7.19-.51-10.34,10.79-20.34,21.5-29.98,32.13l-1.06-.34c-.11.69-.8.92-2.08.69-.62-.25-3.29-1.36-3.48-1.39-.27-.93.68-2.08,2.85-3.45,9.36-9.67,18.6-19.41,27.73-29.22,1.4-1.9,5.99-1.46,8.34-.7Z"/>
  <path class="cls-155" d="M99.63,54.09c.81.35,1.92.4,2.78.69.26.45.45.93.69,1.39v.69c-.77.51-1.41.76-2.03.14l-20.69,24.45c-.52-.4-1.05-.53-1.6-.27-.65.58-1.99.48-2.78,0-1.47-1.55-.72-3.66,2.25-6.33,6.57-6.74,12.78-13.77,18.62-21.1.83-.41,1.76-.3,2.77.33Z"/>
  <path class="cls-9" d="M103.1,56.87c.24.22.49.43.7.69-3.67,1.64-4.65,5.84-6.65,8.3s-4.81,4.75-6.83,7.07c-3.04,3.49-5.47,8.38-10.15,10.35-.02-.23.03-.47,0-.69-.03-.25.07-.55,0-.69l-1.39-.7,21.52-25.41c.88-.69,2.19.51,2.8,1.08Z"/>
  <path class="cls-14" d="M96.85,161.82c-.45,1.72-1.83,1.56-2.78,2.08.45-1.71,1.82-1.55,2.78-2.08Z"/>
  <path class="cls-14" d="M78.78,172.24c-1.49.67-1.42.87-3.48,1.39.84-1.14,2.1-1.45,3.48-1.39Z"/>
  <path class="cls-116" d="M129.51,127.76c-.15.55.18,1.87,0,2.08-.06.08-.99-.03-1.39,0-1.14-.13-2.53-1.81-1.39-3.47.8.14,1.9,1.12,2.78,1.39Z"/>
  <path class="cls-160" d="M126.74,126.37c-.34,1.58.14,1.87,1.37,2.55l.02.92c-.68.05-1.47-.11-2.09,0,.11-1.12-.15-2.39,0-3.47.22,0,.48-.04.7,0Z"/>
  <path class="cls-202" d="M82.95,86.76c.2.33.63,2.24.7,2.78.05.45-.07.95,0,1.39l-1.39,2.08c-.28-2.05-.51-2.28-.69-.69-1.22-.6-.53-2.42-.69-3.48.15-2.36.85-3.05,2.08-2.08Z"/>
  <path class="cls-104" d="M82.95,86.76c-1.67-.46-1.25,1.08-2.08,2.08-.04-.23.03-.47,0-.69-.63-2.2,1.05-3.11,2.08-1.39Z"/>
  <path class="cls-165" d="M115.62,147.92c1.36-1.32,2.85-2.81,4.17-4.17-.34,1.94-2.18,3.87-4.17,4.17Z"/>
  <path class="cls-86" d="M112.14,134.02c-2.41.13-4.96.57-7.65.69-1.99-.73-1.53-.89-2.09-2.08.21-.38.44-.37.69,0,2.5,1.88,6.66-.5,9.04,1.39Z"/>
  <path class="cls-173" d="M28.74,105.52c.51,1.39.51,2.8,0,4.17-1.27.9-.3,2.89-1.04,4.17-.35.61-9.52,8.19-10.77,9.03-.18.62-.41.61-.7,0-1.35-4.3-.69-6.89,1.98-7.78l8.43-6.92c-.11-1.61.26-3.6,2.1-3.36.46.2.45.44,0,.7Z"/>
  <path class="cls-192" d="M29.44,120.81h-.7c-.03-1.85.01-3.71,0-5.56s0-3.71,0-5.56c0-1.39,0-2.78,0-4.17.2-.61.43-.6.7,0,.03,5.09,0,10.2,0,15.29Z"/>
  <path class="cls-94" d="M17.62,125.68c-.72-.74-1.27-1.11-2.09-2.08.27-.16.47-.58.69-.7.19-.1.54.1.7,0l1.38,2.44-.68.34Z"/>
  <path class="cls-211" d="M28.74,104.83c-1.36.78-.26,2.97-.84,4.03-.28.51-7.7,6.46-8.92,7.41-.74.58-2.48.93-2.63,1.17-.58.9.16,4.11-.11,5.45-1.09.07-.52-1.12-.69-1.39.45-1.79-.58-3.7-.58-5.26,0-.82.57-1.42.58-1.69l1.51-3.12,9.55-8.18c.16-1.75.88-2.62,2.14-2.6.68.63.5,3.12,0,4.17Z"/>
  <path class="cls-20" d="M108.66,131.24c-.14.15.42,1.24-.4,1.43-1.37.31-3.61-.28-5.16-.04h-.69s-.81.1-.69-.69c2.29.35,3.6-.09,5.56-.7.36-.11.96.07,1.39,0Z"/>
  <path class="cls-4" d="M97.55,51.31l-5.27.64c-8.17,11.1-19.65,20.36-28.12,30.95-.83,1.03-1.63,1.57-1.36,3.15-.21.39-.44.38-.7,0-.18-.26-.52-.45-.69-.69-1.23-.84-1.93-1.76-2.09-2.78,1.8-1.18,3.8-5.31,5.28-6.89,7.79-8.32,16.55-15.96,23.56-25.08,3.2-2.95,6.27-.55,9.38.69Z"/>
  <path class="cls-34" d="M53.06,110.39c.63-1.29,1.49-.38,2.09.69.29.18.49.44.69.69-1.68,5.14-6.83,9.32-11.12,12.51-.7.6-1.24.17-1.39-.69-1.74-2.31-1.36-9.09-.87-12.4.07-.47.95-.68,1.57-.81,1.52.42,3.56.55,1.39,0-.32-2.97,6.69-2.23,7.64,0Z"/>
  <path class="cls-214" d="M53.76,96.49l-2.78,3.48c-.79.62-1.1.93-2.09,1.39-1.47.12-2.86.12-4.17,0-1.21.06-.91-9.3-.55-9.67l5.41-.75h2.09c-.63-.98-.29-1.31.69-.7,2.69,2.45,2.69,2.63,1.39,6.26Z"/>
  <path class="cls-209" d="M84.34,49.23l-14.93,17.38-15.65,15.28c-.62-.11-1.41.06-2.09,0-2.55-.39-5.1-.62-7.65-.7-.61-.2-.6-.43,0-.69.83-2.22,6.52-1.94,7.65,0,10.39-9.36,20.15-19.48,29.28-30.36,1.42-1.63,2.55-1.94,3.38-.92Z"/>
  <path class="cls-8" d="M56.54,113.17c-.49,1.35-.5,2.82,0,4.17-.73,4.98-5.13,7.25-9.73,7.64-.81-.16-1.5-.39-2.09-.69-.53-2.05.49-1.74,1.28-2.53,3.3-3.3,6.69-6.54,9.84-9.98.45.57.55.49.69,1.39Z"/>
  <path class="cls-62" d="M42.64,106.91h6.95c.7-.76,1.17-.29,1.39,1.39.43.2,1.61-.19,2.09,0,.83.89,1.46,1.92,0,2.08-2.25-.58-5.65-1.55-7.64,0-.39.53-.88.42-1.39,0-1.28,3.94-.69,8.99-.69,13.21,1.19.97,1.19,1.44,0,1.39-1.25-.04-1.79-.65-2.09-.69-.29-5.5-.52-11.06-.69-16.68-1.14-1.36,1.68-2.25,2.09-.69Z"/>
  <path class="cls-207" d="M67.66,98.57c-.79-.08-.97,1.54-1.39,2.09-.03,1.59-2.01,3.83-3.48,3.47-1.82.05-4.02-.45-5.56-1.39-.41-1.57,2.7-3.65,4.17-3.48.18-1.31,1.46-4.29,2.78-4.17,1.03-.66,1.34-1.89.94-3.67l1.14.19c2.58-.54,2.66,5.46,1.39,6.95Z"/>
  <path class="cls-28" d="M40.56,124.29s-.31.78-.6.64c-.13-.06-1.51-2.12-1.54-2.35-.25-1.91-.17-14.55.39-15.68,1.02-2.05,7.9-2.15,10.09-2.07l-.71,1.38c1.22.88,3.49-2.95,2.79,2.09-.48-.22-1.07-1.29-1.39-1.39h-6.95c-.85-.11-1.82-.21-2.09.69.52,5.71.52,11.27,0,16.68Z"/>
  <path class="cls-221" d="M52.37,90.23c-.08.33-.37.64-.69.7l-7.81-.35c1.12-1.54-.9-.71-1.17-.13-.9,1.93-.97,9.64.64,11.6.61.2.6.43,0,.7-1.17.15-2.78,1.47-3.37-.45-.37-1.22-.27-13.52.2-14.19.67-.97,6.33-.87,7.66-.62,1.23.23,3.57,1.85,4.55,2.75Z"/>
  <path class="cls-154" d="M69.05,88.84v4.17c-.26,2,.27,4.19-.72,6.26-.28-.12-.55-.69-.67-.7.38-3.28.06-4.34-1.39-6.95-.88.25-1.58-.45-2.09-2.09-.5-.69-.61-1.27-.7-1.39.2-.61.43-.6.7,0,1.98-.57,2.91-2.02,4.17-3.47-.43,1.85.2,2.79.7,4.17Z"/>
  <path class="cls-13" d="M63.49,124.98c.26-2.67,2.17-4.46,3-7.08.69-2.17.18-5.09,1.87-6.82.28,4.85.18,11.72-4.86,13.9Z"/>
  <path class="cls-125" d="M49.59,90.93c-.89,1.38-3.66.08-4.56,1.34-.42.59-.55,8.09-.3,9.08.61.13,1.07.36,1.39.69-1.13.33-1.31.51-2.78.7v-.7c-1.76-.26-1.28-11.88-.66-12.01,2.24.57,4.55.86,6.91.89Z"/>
  <path class="cls-142" d="M60.71,97.88c2.06-2.31,2.38-4.6,2.09-7.64l1.38.69c1.72-.29,1.36,3.67,0,4.17-.98,1.46-.49,1.9-2.78,4.17-1.79.77-2.11-.12-.69-1.39Z"/>
  <path class="cls-24" d="M29.44,105.52h-.7v-4.87l-1.39-.76c.73-2.68,1.19-5.44,1.39-8.28-1.75-.48-1.75-2.1,0-4.87.22-.24.45-.47.7-.69.66,5.66-.03,13.49,0,19.46Z"/>
  <path class="cls-216" d="M43.34,77.72c1.21.11,1.44,1.04.69,2.78v.69c-1.57.13-3.19.36-4.86.7-.92.04-1.86-.06-2.78,0-1.55.36-2.94.36-4.17,0,.17-.28.52-.46.69-.7,1.99-1.39,4.36-2.04,7.11-1.93.97-1.67,2.07-2.18,3.31-1.54Z"/>
  <path class="cls-168" d="M41.25,124.29c-.23-.03-.48.05-.69,0,.8-4.28-1.08-13.05,0-16.68,1.59,5.18.27,11.28.69,16.68Z"/>
  <path class="cls-142" d="M61.4,99.27c-1.4,1.38-2.7,2.24-4.17,3.48-.5-.31-1.04-.5-1.38-1.04,0-.63,4.09-2.97,4.85-3.82l.69,1.39Z"/>
  <path class="cls-157" d="M44.03,81.2c2.37-.03,5.83-.55,7.65.7-3.74-.31-8.69-.15-12.51,0,.95-1.21,3.34-.67,4.86-.7Z"/>
  <path class="cls-152" d="M64.19,89.54c.1.13.77-.29,2.09,2.09-1.2.53-.29,2.59-.88,3.33-.27.34-1.16.08-1.2.15.99-2.03.5-2.53,0-4.17-.11-.36.07-.96,0-1.39Z"/>
  <path class="cls-135" d="M62.8,124.98c0,2.35-1.57,2.09-2.78,2.78-1.32.4-1.78.17-1.39-.69,1.19-.44,2.85-1.44,4.17-2.09Z"/>
  <path class="cls-38" d="M58.62,127.07l1.39.69c-1.78,1.02-1.71.82-3.47,1.39l-.69-.7c.29-.09,1.69-.99,2.78-1.39Z"/>
  <path class="cls-39" d="M59.32,82.59c1.51.58,1.58,2.05,2.09,2.78-1.42-.61-2.74-1.5-4.17-2.08.41-.92,1.8-.5,2.08-.69Z"/>
  <path class="cls-79" d="M64.19,104.83c-.17.63-.63.63-1.39,0-.07-.2.05-.48,0-.69,1.57-.77,2.46-2.15,3.48-3.47,1.56,1.56-1.54,2.61-2.09,4.17Z"/>
  <path class="cls-111" d="M64.19,104.83c1.31.38,1.99,1.84,2.78,2.78v1.39c-.81-.92-4.07-3.89-4.17-4.17.44.07,1.02-.11,1.39,0Z"/>
  <path class="cls-153" d="M55.15,111.08c-.17-.11-1.7-.6-2.09-.69v-2.08c1.21.48,2.03,1.44,2.09,2.78Z"/>
  <path class="cls-138" d="M50.98,99.96c.1-1.66,1.45-2.72,2.78-3.48-.82,2.27-1.01,2.09-2.78,3.48Z"/>
  <path class="cls-139" d="M48.89,101.35c-1.14.53-1.85.43-2.78.69-.66.06-1.19.1-1.39-.69,1.33.11,3.41-1.41,4.17,0Z"/>
  <path class="cls-157" d="M36.38,81.89c-.97.07-2.21.7-4.17.69v-.69h4.17Z"/>
  <path class="cls-17" d="M44.73,124.29c.66.17,1.65-.27,2.09.69-1.1.09-2.36.03-3.48,0v-1.39c.47.17.95.58,1.39.69Z"/>
  <path class="cls-121" d="M56.54,117.34c-1.12-.66-1.14-3.47,0-4.17.15.94.14,3.22,0,4.17Z"/>
  <path class="cls-75" d="M64.19,88.15h-.7c-.49-.67-.92-1.4-1.39-2.08h.7c1.02.28,1.39,1.07,1.39,2.08Z"/>
  <path class="cls-157" d="M92.68,47.84c-3.24,0-6.48.27-9.72.85l-.7-.85c-8.05,3.09-15.04,7.61-20.99,13.55-5.12,5.58-10.38,11.01-15.77,16.3l-2.15.03c-.87.74-2.41,2.72-2.6,2.78-1.78.55-5.76.46-7.83.7,4.03-5.46,13.5-14.39,18.76-19.12,10.96-9.87,25.58-20.66,41.01-14.24Z"/>
  <path class="cls-209" d="M92.68,47.84v.69c-3.01-.2-5.47-.13-8.34.7-4.11,1.19-3.13,2.26-5.54,4.54-7.6,7.18-16.62,20.25-24.31,25.74-1.3.93-1.3.83-2.81,1l-.58-1.42c9.14-9.78,18.31-19.56,27.49-29.34l3.66-1.91c3.88-.46,6.43-.59,10.43,0Z"/>
  <path class="cls-146" d="M28.74,100.66l-.85,3.32-12.35,10.58c.13-2.57.11-3.65.69-6.26.92-3.58,2.64-5.81,5.17-6.69l5.15-5.22c-.38-3.57.35-5.16,2.19-4.78v9.03Z"/>
  <path class="cls-137" d="M28.74,91.62c-1.54,1.34-.05,3.93-1.05,5.55-.21.33-5.2,5.38-5.53,5.59-1.12.73-2.6.53-3.5,1.36s-1.03,3.34-2.43,4.17c1.66-7.37,7.45-16.02,12.51-21.55v4.87Z"/>
  <path class="cls-16" d="M52.37,130.54v.69c-.15.71-1.41.36-2.09,0h-2.09c.78-1.27,2.88-.54,4.17-.69Z"/>
  <path class="cls-87" d="M52.37,131.24h1.38s0,.69,0,.69c-1.08-.06-2.85.48-3.47-.69h2.09Z"/>
  <path class="cls-101" d="M99.63,54.09c-1.69-.19-2.12.19-2.93,1.59-4.26,7.31-11.97,13.49-17.6,19.93-1.32,1.51-2.73,3.57-3.1,5.59-1.48.52-3.39.51-4.87,0l24.63-27.86c1.87-1.72,2.82.3,3.86.75Z"/>
  <path class="cls-164" d="M71.13,81.2c1.57-.08,3.29-.07,4.87,0,.9.04,1.92-.12,2.78,0,.77.1.97-.2,1.39.7h-11.12c-.18-1.18,1.31-.65,2.08-.7Z"/>
  <path class="cls-204" d="M91.29,90.23c.16.81.68,1.31.7,1.39.03,1.39-.06,2.79,0,4.17.02.42.68,1.41.72,2.42.25,5.33-5.45,6.8-5.64,7.79-.35,1.78,2.1,5.32.05,7.17-.69-4.62-1.35-9.29-2.09-13.9-.33-4.77-.17-7.67,4.85-9.94l1.41.9Z"/>
  <path class="cls-118" d="M90.6,83.28c.16,1.52-.62,3.88.69,4.86.06.67-.12,1.49,0,2.08-.93.14-5.25,3.33-5.41,3.62-.75,1.29.75,4.24-.84,5.42-.31-1.95-1.15-3.47-1.39-4.86,2.62.27.84-3.52,1.75-5.55s5.49-3.46,4.51-6.96c1.24-.26.45.97.69,1.39Z"/>
  <path class="cls-205" d="M107.27,115.95c-.05-.59-.01-1.2-.69-1.39.02-.46-.04-.93,0-1.39.07-.91-.02-1.86,0-2.78.2-.61.43-.6.69,0,.21,1.5,1.82,4.06,0,5.56Z"/>
  <path class="cls-70" d="M105.19,101.35c-.36.02-.6-.44-.69-1.39-.02-.23.01-.46,0-.7-.36-.45-.4-.91,0-1.39.09-.45.16-.75.69-.69.16,2.02.74,1.05,0,4.17Z"/>
  <path class="cls-31" d="M105.19,97.18l-.69.69c-.56-.66-.53-1.39,0-2.08.03-1.15-.03-2.32,0-3.47h.68c.11,1.6-.12,3.26,0,4.86Z"/>
  <path class="cls-223" d="M107.97,120.12c0-.23,0-.46,0-.69.02-1.16-.02-2.32,0-3.47h.68c-.11,1.27.57,3.34-.69,4.17Z"/>
  <path class="cls-31" d="M103.8,92.32c-.59-.33-.43-.84,0-1.39.03-.92-.03-1.86,0-2.78h.68c-.11,1.27.57,3.34-.69,4.17Z"/>
  <path class="cls-70" d="M105.89,106.22c-.01-.46-.02-.93,0-1.39.03-.92-.03-1.86,0-2.78h.68c-.11,1.27.57,3.34-.69,4.17Z"/>
  <path class="cls-215" d="M105.19,101.35c-.14.58.09,1.43,0,2.08-.78-1.74-.56-1.76-.69-3.47l.69,1.39Z"/>
  <path class="cls-194" d="M107.27,110.39h-.69c0-.23,0-.46,0-.69.04-.92-.03-1.86,0-2.78h.68c.13,1.12-.15,2.38,0,3.47Z"/>
  <path class="cls-215" d="M103.8,92.32c-.02.69,0,1.39,0,2.08-1.11-.59-.67-2.36-.7-3.47h.7c-.02.46.01.93,0,1.39Z"/>
  <path class="cls-20" d="M83.65,103.44c.15.85.17,1.07-.7.69-.2-1.62-.56-3.26-.69-4.87.08-.46.16-.76.69-.69.21,1.51.48,3.25.7,4.87Z"/>
  <path class="cls-217" d="M83.65,107.61c-.15-1.12-.54-2.23-.7-3.47l.7-.69c.11.82,1.89,3.02,0,4.17Z"/>
  <path class="cls-60" d="M82.95,98.57l-.69.69c-.06-.69.05-1.4,0-2.08-.44-.84-.66-2.03,0-2.78,1.29.78.52,2.89.69,4.17Z"/>
  <path class="cls-186" d="M82.26,93.01c0,.23,0,.46,0,.7-.2.61-.43.6-.69,0-.01-.46-.02-.93,0-1.39.03-.92-.03-1.86,0-2.78h.68c.04,1.15-.03,2.32,0,3.47Z"/>
  <path class="cls-217" d="M84.34,112.47c0-.46-.02-.93,0-1.39.03-.92-.03-1.86,0-2.78h.68c-.11,1.27.57,3.34-.69,4.17Z"/>
  <path class="cls-202" d="M82.26,94.4c.03.92-.06,1.86,0,2.78-1.12-.59-.67-2.36-.69-3.47h.69c0,.23,0,.46,0,.69Z"/>
  <path class="cls-215" d="M104.49,97.88c0,.46-.03.93,0,1.39-1.12-.59-.67-2.36-.69-3.47h.69c-.02.69,0,1.39,0,2.08Z"/>
  <path class="cls-73" d="M45.42,110.39c.72-.04,2.95-.48,2.78.69-.77.16-3.26-.21-3.48,0-.36.36.54,8.35-.34,8.35l-.35-9.04c.46-.02.93.03,1.39,0Z"/>
  <path class="cls-162" d="M43.34,102.05c-2.43.09-1.92.43-2.09-1.7-.29-3.74.22-7.74,0-11.51h7.65s-4.86,1.39-4.86,1.39l7.64.7c-.6.1-1.41-.02-2.09,0-2.08.05-4.18-.04-6.26,0v11.12Z"/>
  <path class="cls-146" d="M82.26,47.84l-30.58,32.67c-2.4.28-5.18-.19-7.65,0l-1.43-.4.74-2.38c12.55-10.66,22.04-27.9,38.92-29.89Z"/>
  <path class="cls-140" d="M49.59,106.91c-.78,1.09-3.22.82-4.56.73-1.44-.09-2.26-.72-2.39-.73,2.5-.98,4.46-.78,6.95,0Z"/>
</svg>