<?xml version="1.0" encoding="UTF-8"?>
<svg id="Layer_1" data-name="Layer 1" xmlns="http://www.w3.org/2000/svg" viewBox="0 0 587 204">
  <defs>
    <style>
      .cls-1 {
        fill: #fff;
      }
    </style>
  </defs>
  <g>
    <path class="cls-1" d="M521.94,8h-61.5c-7.9,0-16.42,6.14-18.94,13.63-6.03,17.9,3.27,31.67,21.59,33.49,31.37,3.11,73.09-7.5,100.39,12.32,6.32,4.59,11.16,10.99,14.55,18.38.11.24.46.15.43-.11-.51-5.62-1.29-11.13-2.31-16.41-7.32-37.89-27.92-54.37-54.2-61.29Z"/>
    <path class="cls-1" d="M531.72,172.96h-121.43c-.41,0-.74.33-.74.74v7.88c.2,9.4,6.34,12.92,14.91,13.78,23.7,2.38,81.3,1.8,103.17-5.41,15.5-5.11,26.9-14.59,34.98-26.57.44-.66-.34-1.45-1.01-1.03-8.5,5.33-22.09,10.61-29.88,10.61Z"/>
    <path class="cls-1" d="M543.92,128.81c9.93-13.55,4.67-34.18-12.27-38.79-32.35-8.79-74.94,7.73-105.31-12.52-5.96-3.97-10.67-9.5-14.15-15.93-.7-1.28-2.62-.83-2.62.63l-.02,74.53c0,.77.62,1.39,1.39,1.39h115.65c5.46,0,14.04-4.82,17.33-9.31Z"/>
  </g>
  <g>
    <g>
      <path class="cls-1" d="M8.39,7.63h16.34v86.73H8.39V7.63ZM16.62,78.62h20.82c5.37,0,9.52-1.29,12.47-3.88,2.94-2.58,4.41-6.24,4.41-10.98v-25.53c0-4.73-1.47-8.39-4.41-10.98-2.94-2.58-7.1-3.88-12.47-3.88h-20.82V7.63h20.46c7.24,0,13.41,1.21,18.52,3.64,5.11,2.43,9,5.97,11.66,10.62,2.66,4.65,4,10.26,4,16.82v24.58c0,6.24-1.28,11.69-3.85,16.34-2.56,4.65-6.41,8.27-11.54,10.86-5.13,2.59-11.41,3.88-18.85,3.88h-20.4v-15.75Z"/>
      <path class="cls-1" d="M97.01,94.37h-16.94V7.63h16.94v86.73Z"/>
      <path class="cls-1" d="M170.48,45.87v16.94c0,6.44-1.3,12.12-3.91,17.03-2.6,4.91-6.29,8.71-11.07,11.39s-10.3,4.02-16.58,4.02-11.9-1.26-16.73-3.79-8.57-6.09-11.21-10.71c-2.65-4.61-3.97-9.96-3.97-16.05v-25.59c0-6.44,1.3-12.11,3.91-17,2.6-4.89,6.29-8.68,11.07-11.36s10.3-4.03,16.58-4.03c5.17,0,9.94,1.07,14.32,3.19,4.37,2.13,8.02,5.14,10.95,9.04,2.92,3.9,4.9,8.41,5.94,13.54h-17.66c-.6-1.83-1.58-3.41-2.95-4.74s-2.98-2.35-4.83-3.04-3.77-1.05-5.76-1.05c-2.9,0-5.46.64-7.67,1.91-2.21,1.27-3.92,3.08-5.13,5.43-1.21,2.35-1.82,5.05-1.82,8.11v25.59c0,2.71.62,5.09,1.85,7.16,1.23,2.07,2.98,3.66,5.25,4.77,2.27,1.11,4.89,1.67,7.87,1.67s5.52-.6,7.72-1.82,3.91-2.97,5.1-5.28c1.19-2.3,1.79-5.03,1.79-8.17v-1.43h-13.12v-15.75h30.06Z"/>
      <path class="cls-1" d="M196.22,94.37h-16.94V7.63h16.94v86.73Z"/>
      <path class="cls-1" d="M202.89,7.63h63.59v15.75h-63.59V7.63ZM226.51,14.73h16.34v79.63h-16.34V14.73Z"/>
      <path class="cls-1" d="M287.32,7.63h10.38l33.17,86.73h-17.6l-20.76-59.23-20.76,59.23h-17.6L287.32,7.63ZM270.08,64.72h45.63v15.75h-45.63v-15.75Z"/>
      <path class="cls-1" d="M335.5,7.63h16.34v86.73h-16.34V7.63ZM342.77,78.62h50.82v15.75h-50.82v-15.75Z"/>
    </g>
    <g>
      <path class="cls-1" d="M28.88,196.01c-3.96-.84-7.68-2.06-11.15-3.67-3.48-1.61-6.59-3.55-9.34-5.82l7.58-13.48c3.34,2.74,7.2,4.86,11.57,6.35,4.37,1.49,8.87,2.23,13.48,2.23,5.33,0,9.46-.9,12.41-2.71,2.94-1.81,4.41-4.36,4.41-7.67v-.06c0-2.3-.66-4.14-1.97-5.49-1.31-1.35-3.02-2.35-5.13-2.98-2.11-.63-4.81-1.21-8.11-1.73-.12-.04-.23-.06-.33-.06s-.21-.02-.33-.06l-1.31-.18c-5.81-.91-10.62-2.06-14.44-3.43s-7.06-3.78-9.72-7.22c-2.66-3.44-4-8.32-4-14.65v-.06c0-5.61,1.25-10.4,3.76-14.38,2.51-3.97,6.14-7.01,10.92-9.09s10.54-3.13,17.3-3.13c3.1,0,6.27.36,9.51,1.07,3.24.72,6.41,1.75,9.51,3.1,3.1,1.35,6.04,2.98,8.83,4.89l-6.92,13.84c-3.34-2.3-6.83-4.09-10.47-5.37-3.64-1.27-7.13-1.91-10.47-1.91-5.01,0-8.89.83-11.63,2.48s-4.12,3.96-4.12,6.95v.06c0,2.51.72,4.49,2.15,5.94s3.2,2.51,5.31,3.19c2.11.68,5.07,1.39,8.89,2.15.16.04.32.07.48.09.16.02.32.05.48.09.24.04.47.09.69.15.22.06.45.11.69.15,5.49,1.07,10.07,2.38,13.75,3.91,3.68,1.53,6.75,4,9.22,7.4,2.47,3.4,3.7,8.04,3.7,13.93v.12c0,5.53-1.29,10.26-3.88,14.2-2.59,3.94-6.35,6.94-11.3,9.01-4.95,2.07-10.91,3.1-17.87,3.1-4.14,0-8.18-.42-12.14-1.25Z"/>
      <path class="cls-1" d="M92.86,109.63h16.34v86.73h-16.34v-86.73ZM98.77,109.63h52.19v15.75h-52.19v-15.75ZM98.77,145.42h45.63v15.75h-45.63v-15.75ZM98.77,180.62h52.19v15.75h-52.19v-15.75Z"/>
      <path class="cls-1" d="M169.36,109.63h19.98l32.27,66.45-1.43,1.55v-68h15.63v86.67h-20.1l-32.15-65.44,1.43-1.55v66.99h-15.63v-86.67Z"/>
      <path class="cls-1" d="M270.92,196.01c-3.96-.84-7.68-2.06-11.15-3.67s-6.59-3.55-9.34-5.82l7.58-13.48c3.34,2.74,7.2,4.86,11.57,6.35s8.87,2.23,13.48,2.23c5.33,0,9.46-.9,12.41-2.71s4.41-4.36,4.41-7.67v-.06c0-2.3-.66-4.14-1.97-5.49-1.31-1.35-3.02-2.35-5.13-2.98-2.11-.63-4.81-1.21-8.11-1.73-.12-.04-.23-.06-.33-.06s-.21-.02-.33-.06l-1.31-.18c-5.81-.91-10.62-2.06-14.44-3.43-3.82-1.37-7.06-3.78-9.72-7.22s-4-8.32-4-14.65v-.06c0-5.61,1.25-10.4,3.76-14.38,2.51-3.97,6.14-7.01,10.92-9.09s10.54-3.13,17.3-3.13c3.1,0,6.27.36,9.51,1.07s6.41,1.75,9.51,3.1c3.1,1.35,6.04,2.98,8.83,4.89l-6.92,13.84c-3.34-2.3-6.83-4.09-10.47-5.37-3.64-1.27-7.13-1.91-10.47-1.91-5.01,0-8.89.83-11.63,2.48s-4.12,3.96-4.12,6.95v.06c0,2.51.72,4.49,2.15,5.94s3.2,2.51,5.31,3.19c2.11.68,5.07,1.39,8.89,2.15.16.04.32.07.48.09s.32.05.48.09c.24.04.47.09.69.15s.45.11.69.15c5.49,1.07,10.07,2.38,13.75,3.91s6.75,4,9.22,7.4c2.47,3.4,3.7,8.04,3.7,13.93v.12c0,5.53-1.29,10.26-3.88,14.2s-6.35,6.94-11.3,9.01c-4.95,2.07-10.91,3.1-17.87,3.1-4.14,0-8.18-.42-12.14-1.25Z"/>
      <path class="cls-1" d="M334.9,109.63h16.34v86.73h-16.34v-86.73ZM340.81,109.63h52.19v15.75h-52.19v-15.75ZM340.81,145.42h45.63v15.75h-45.63v-15.75ZM340.81,180.62h52.19v15.75h-52.19v-15.75Z"/>
    </g>
  </g>
</svg>