<?xml version="1.0" encoding="UTF-8"?>
<svg id="Layer_1" data-name="Layer 1" xmlns="http://www.w3.org/2000/svg" viewBox="0 0 512 512">
  <defs>
    <style>
      .cls-1 {
        fill: #6c3;
      }
    </style>
  </defs>
  <path class="cls-1" d="M449.61,110.19v47.9l-360.34-.83v79.15h360.27l-1.11,159.93-358.13,2.4-.57,98.18c.17,0,.33.01.49.01h187.22c114.07,0,206.55-92.47,206.55-206.55v-64.89c0-42.57-12.65-82.18-34.39-115.29Z"/>
  <path class="cls-1" d="M50.52,358.98l358.17-2.4.56-80.16H49.26V117.15l360.34.83v-53.03c-36.68-31.11-84.14-49.88-136-49.88H90.23c-34.37,0-62.23,27.86-62.23,62.23v357.38c0,18.93,8.47,35.88,21.81,47.29l.71-123Z"/>
</svg>