<?xml version="1.0" encoding="UTF-8"?>
<svg id="Layer_1" data-name="Layer 1" xmlns="http://www.w3.org/2000/svg" viewBox="0 0 512 512">
  <path d="M62.02,364.18l350.85-2.35.65-93.17H60.83V127.36l352.98.82v-52.77c-36.82-34.36-86.24-55.4-140.57-55.4H93.62c-33.67,0-60.96,27.29-60.96,60.96v350.08c0,21.81,11.46,40.93,28.68,51.7l.69-118.57Z"/>
  <path d="M438.31,102.67v50.05l-352.98-.82v92.25h352.86l-.99,142.01-350.82,2.35-.6,102.97c2.57.33,5.18.52,7.83.52h183.4c111.74,0,202.33-90.59,202.33-202.33v-63.57c0-46.3-15.27-89.02-41.03-123.43Z"/>
</svg>