<?xml version="1.0" encoding="UTF-8"?>
<svg id="Layer_1" data-name="Layer 1" xmlns="http://www.w3.org/2000/svg" viewBox="0 0 200 200">
  <defs>
    <style>
      .cls-1 {
        fill: #fff;
      }
    </style>
  </defs>
  <path class="cls-1" d="M127.94,5.7h-61.5c-7.9,0-16.42,6.14-18.94,13.63-6.03,17.9,3.27,31.67,21.59,33.49,31.37,3.11,73.09-7.5,100.39,12.32,6.32,4.59,11.16,10.99,14.55,18.38.11.24.46.15.43-.11-.51-5.62-1.29-11.13-2.31-16.41-7.32-37.89-27.92-54.37-54.2-61.29Z"/>
  <path class="cls-1" d="M137.72,170.65H16.29c-.41,0-.74.33-.74.74v7.88c.2,9.4,6.34,12.92,14.91,13.78,23.7,2.38,81.3,1.8,103.17-5.41,15.5-5.11,26.9-14.59,34.98-26.57.44-.66-.34-1.45-1.01-1.03-8.5,5.33-22.09,10.61-29.88,10.61Z"/>
  <path class="cls-1" d="M149.92,126.51c9.93-13.55,4.67-34.18-12.27-38.79-32.35-8.79-74.94,7.73-105.31-12.52-5.96-3.97-10.67-9.5-14.15-15.93-.7-1.28-2.62-.83-2.62.63l-.02,74.53c0,.77.62,1.39,1.39,1.39h115.65c5.46,0,14.04-4.82,17.33-9.31Z"/>
</svg>