<?xml version="1.0" encoding="UTF-8"?>
<svg id="Layer_1" data-name="Layer 1" xmlns="http://www.w3.org/2000/svg" viewBox="0 0 680 400">
  <defs>
    <style>
      .cls-1 {
        fill: #6c3;
      }

      .cls-2 {
        fill: #fff;
      }
    </style>
  </defs>
  <g>
    <path class="cls-1" d="M424.12,63.5v20.81l-156.56-.36v34.39h156.53l-.48,69.49-155.6,1.04-.25,42.66c.07,0,.14,0,.21,0h81.35c49.56,0,89.74-40.18,89.74-89.74v-28.19c0-18.5-5.5-35.7-14.94-50.09Z"/>
    <path class="cls-1" d="M250.72,171.6l155.62-1.04.24-34.83h-156.41v-69.2l156.56.36v-23.04c-15.94-13.51-36.56-21.67-59.09-21.67h-79.67c-14.93,0-27.04,12.11-27.04,27.04v155.28c0,8.23,3.68,15.59,9.47,20.55l.31-53.44Z"/>
  </g>
  <g>
    <g>
      <path class="cls-2" d="M25.31,352.1v-101.52h39.53c4.6,0,13.81,2.03,19.63,11.51,4.33,7.04,5.55,18.27,5.55,35.06,0,20.03,0,43.18-15.57,52.25-4.2,2.44-9.34,2.71-14.08,2.71H25.31ZM52.52,337.21c16.92,0,18-8.94,18-38.31,0-23.96-2.44-33.44-13.81-33.44h-12.45v71.74h8.26Z"/>
      <path class="cls-2" d="M98.26,266.55v-15.97h17.6v15.97h-17.6ZM98.26,352.1v-76.35h17.6v76.35h-17.6Z"/>
      <path class="cls-2" d="M142.69,360.63c0,1.63.81,2.71,2.03,3.38,1.35.81,3.25,1.08,5.41,1.08,7.44,0,8.8-5.96,8.8-11.91v-8.8l-.27-.27c-3.52,7.31-8.53,9.61-16.11,10.02-14.89,0-17.87-13.4-18.27-25.58v-27.61c.41-20.98,6.9-26.94,18.27-27.21,7.99-.13,12.86,2.98,15.3,9.88h.27v-7.85h17.6v74.05c0,15.57-4.33,28.02-28.43,28.02-11.64,0-21.25-4.33-22.2-17.19h17.6ZM149.86,287.26c-8.26,0-7.44,7.17-7.99,14.75v25.45c.41,7.31,2.3,13.13,7.72,13.13,5.69,0,8.53-4.74,8.53-13.54v-22.88c.27-6.09,0-16.92-8.26-16.92Z"/>
      <path class="cls-2" d="M183.52,266.55v-15.97h17.6v15.97h-17.6ZM183.52,352.1v-76.35h17.6v76.35h-17.6Z"/>
      <path class="cls-2" d="M240.23,352.37c-10.42,1.22-25.04,2.17-25.04-12.05v-51.71h-7.17v-12.86h7.04v-20.98h17.73v20.98h7.45v12.86h-7.45v47.38c.41,3.25,5.28,2.84,7.45,2.57v13.81Z"/>
      <path class="cls-2" d="M281.65,352.1c-1.22-2.44-1.35-5.14-1.08-7.85h-.27c-2.03,3.11-4.33,5.69-7.04,7.31-2.57,1.62-5.41,2.57-8.39,2.57-14.21,0-20.44-7.18-20.44-22.88,0-17.46,12.32-21.66,26.12-27.34,7.45-3.11,10.15-6.5,8.66-12.72-.81-3.38-3.52-3.93-8.26-3.93-7.99,0-9.34,4.2-9.2,11.1h-16.79c-.14-14.48,4.6-24.64,26.67-24.64,23.96,0,25.45,12.59,25.18,22.61v45.08c0,3.65.54,7.18,1.49,10.69h-16.65ZM279.21,311.9c-4.33,2.98-9.61,5.96-14.21,9.75-2.57,2.17-2.98,5.96-2.98,9.21,0,5.82,1.76,9.75,8.26,9.75,10.42,0,8.53-13.13,8.93-20.44v-8.26Z"/>
      <path class="cls-2" d="M307.66,352.1v-101.52h17.6v101.52h-17.6Z"/>
    </g>
    <g>
      <path class="cls-2" d="M400.74,281.44c.14-9.07-.68-18-11.1-18-6.36,0-10.42,2.57-10.42,9.48,0,7.72,4.87,10.69,10.83,14.48,6.23,3.93,17.73,11.51,23.01,16.65,6.5,6.36,8.53,12.45,8.53,21.25,0,19.22-12.72,29.24-31.27,29.24-22.74,0-30.86-12.72-30.86-30.86v-7.44h18.95v5.96c-.41,9.88,2.57,17.06,11.91,17.06,7.99,0,11.78-4.2,11.78-11.91,0-5.96-2.71-10.02-7.58-13.4-9.88-7.72-22.2-13.27-29.92-23.42-3.11-4.6-4.87-10.15-4.87-15.57,0-17.33,9.75-26.8,29.78-26.8,30.19,0,29.37,23.28,29.51,33.3h-18.28Z"/>
      <path class="cls-2" d="M427.74,302.02c-.81-18,8.39-28.29,25.72-28.29,24.5,0,27.07,12.72,27.07,33.57v10.29h-35.2v11.1c.14,10.02,3.93,11.91,9.21,11.91,6.5,0,8.39-4.74,8.12-14.35h17.6c.68,17.06-6.36,27.88-24.37,27.88-20.3,0-28.56-9.61-28.16-32.08v-20.03ZM462.94,304.05v-6.63c-.14-7.72-2.17-10.15-9.21-10.15-8.8,0-8.39,6.77-8.39,13.67v3.11h17.6Z"/>
      <path class="cls-2" d="M506.58,283.61h.27c3.93-8.8,11.78-9.88,15.84-9.88,10.02,0,18.14,5.82,17.6,19.49v58.88h-17.6v-50.9c0-7.45-.81-12.32-7.45-12.59-6.63-.27-8.93,5.96-8.66,14.08v49.41h-17.6v-76.35h17.6v7.85Z"/>
      <path class="cls-2" d="M563.67,326.93c-1.35,14.08,4.06,13.67,8.12,13.67,5.01,0,8.53-3.66,7.31-8.53-.27-4.33-5.28-6.77-8.66-9.07l-9.61-6.63c-8.8-6.09-14.48-13.13-14.48-24.09,0-11.78,9.34-18.55,26.26-18.55s24.91,8.93,24.5,25.31h-17.6c.41-8.53-2.03-11.78-8.12-11.78-4.2,0-7.45,1.89-7.45,6.23s3.25,6.5,6.63,8.8l14.35,9.75c4.47,2.57,11.51,9.88,12.05,15.03,1.49,13.27-1.76,27.07-26.12,27.07-9.34,0-26.8-3.93-24.77-27.21h17.6Z"/>
      <path class="cls-2" d="M601.9,302.02c-.81-18,8.39-28.29,25.72-28.29,24.5,0,27.07,12.72,27.07,33.57v10.29h-35.2v11.1c.14,10.02,3.93,11.91,9.21,11.91,6.5,0,8.39-4.74,8.12-14.35h17.6c.68,17.06-6.36,27.88-24.37,27.88-20.3,0-28.56-9.61-28.16-32.08v-20.03ZM637.09,304.05v-6.63c-.14-7.72-2.17-10.15-9.21-10.15-8.8,0-8.39,6.77-8.39,13.67v3.11h17.6Z"/>
    </g>
  </g>
</svg>